<svg width="24" height="24" viewBox="0 0 24 24" fill="none" xmlns="http://www.w3.org/2000/svg">
<path d="M3.49715 23.0537V18.8022H7.74858" stroke="#DCA15D" stroke-width="1.8" stroke-linecap="round" stroke-linejoin="round"/>
<path d="M22.8669 9.9686C23.3179 12.3754 22.9572 14.8638 21.8413 17.0434C20.7253 19.2231 18.9174 20.9705 16.701 22.0116C14.4847 23.0527 11.9854 23.3285 9.59536 22.7958C7.20533 22.263 5.0598 20.9519 3.49543 19.068M1.13315 14.0315C0.682064 11.6247 1.04279 9.13624 2.15873 6.95662C3.27466 4.777 5.08265 3.02954 7.299 1.98844C9.51535 0.94735 12.0146 0.671538 14.4046 1.20429C16.7947 1.73704 18.9402 3.04819 20.5046 4.93203" stroke="#DCA15D" stroke-width="1.8" stroke-linecap="round" stroke-linejoin="round"/>
<path d="M20.5029 0.946289V5.19772H16.2514M7.01143 12.5726C6.40972 12.468 6.40972 11.604 7.01143 11.4994C8.07683 11.314 9.06288 10.8155 9.84386 10.0675C10.6248 9.31949 11.1654 8.35585 11.3966 7.29943L11.4326 7.13315C11.5629 6.53829 12.4097 6.53486 12.5451 7.128L12.5897 7.32172C12.8298 8.37335 13.3752 9.33061 14.1575 10.0733C14.9399 10.8159 15.9242 11.3109 16.9869 11.496C17.592 11.6006 17.592 12.4697 16.9869 12.576C15.9244 12.761 14.9402 13.2557 14.158 13.998C13.3757 14.7404 12.8301 15.6973 12.5897 16.7486L12.5451 16.9406C12.4097 17.5337 11.5629 17.5303 11.4326 16.9354L11.3983 16.7709C11.1669 15.714 10.6258 14.75 9.84418 14.0019C9.06253 13.2539 8.07574 12.7557 7.00972 12.5709L7.01143 12.5726Z" stroke="#DCA15D" stroke-width="1.8" stroke-linecap="round" stroke-linejoin="round"/>
</svg>
