<svg width="24" height="24" viewBox="0 0 24 24" fill="none" xmlns="http://www.w3.org/2000/svg">
<path d="M20.5556 1C21.2039 1 21.8256 1.25754 22.284 1.71596C22.7425 2.17438 23 2.79614 23 3.44444V20.5556C23 21.2039 22.7425 21.8256 22.284 22.284C21.8256 22.7425 21.2039 23 20.5556 23H3.44444C2.79614 23 2.17438 22.7425 1.71596 22.284C1.25754 21.8256 1 21.2039 1 20.5556V3.44444C1 2.79614 1.25754 2.17438 1.71596 1.71596C2.17438 1.25754 2.79614 1 3.44444 1H20.5556ZM20.5556 3.44444H3.44444V20.5556H20.5556V3.44444ZM12.0452 6.77989C12.3764 5.719 13.8052 5.61878 14.3063 6.555L14.3699 6.68944L16.4941 12H18.1111C18.4226 12.0003 18.7223 12.1196 18.9488 12.3335C19.1753 12.5473 19.3116 12.8396 19.3299 13.1506C19.3481 13.4616 19.247 13.7678 19.047 14.0067C18.8471 14.2456 18.5635 14.3991 18.2541 14.4359L18.1111 14.4444H15.6752C15.4539 14.4446 15.2366 14.3852 15.0461 14.2725C14.8556 14.1599 14.6988 13.998 14.5923 13.804L14.5288 13.6696L13.364 10.7558L11.3424 17.225C11.0259 18.237 9.68633 18.3898 9.13389 17.5367L9.06056 17.4083L7.57678 14.4444H5.88889C5.57737 14.4441 5.27774 14.3248 5.05122 14.111C4.82469 13.8971 4.68838 13.6048 4.67012 13.2939C4.65187 12.9829 4.75305 12.6766 4.95299 12.4378C5.15293 12.1989 5.43655 12.0453 5.74589 12.0086L5.88889 12H8.326C8.74156 12 9.12533 12.2078 9.35267 12.5488L9.42967 12.6832L9.90389 13.6317L12.0452 6.77989Z" fill="#DCA15D"/>
</svg>
