<svg width="110" height="35" viewBox="0 0 110 35" fill="none" xmlns="http://www.w3.org/2000/svg">
<path d="M38.5658 10.3465C35.9751 10.3465 34.2645 11.285 33.4847 13.3058H32.7024V10.4464H27.7661V34.7675H32.799V20.4593C32.799 16.7101 35.0963 14.933 38.369 14.933H41.4487V10.3452H38.5658V10.3465Z" fill="black"/>
<path d="M47.5064 0.232422C45.5049 0.232422 44.0369 1.61588 44.0369 3.68543C44.0369 5.75499 45.5036 7.13844 47.5064 7.13844C49.5091 7.13844 50.9759 5.75749 50.9759 3.68543C50.9759 1.61338 49.4633 0.232422 47.5064 0.232422ZM44.9664 10.4465V34.7675H49.9993V10.4465H44.9664Z" fill="black"/>
<path d="M65.1462 10.4465V5.9562C65.1462 4.96891 65.6351 4.47526 66.5622 4.47526H70.8128V0.232422H64.9494C61.9688 0.232422 60.1121 2.10702 60.1121 5.11763V10.4452H53.3686V14.7368H60.1121V34.7663H65.1449V14.7381H75.9434V34.7675H80.9738V10.4465H65.1449H65.1462ZM78.4846 0.38239C76.4831 0.38239 75.0163 1.76334 75.0163 3.8354C75.0163 5.90746 76.4831 7.28841 78.4846 7.28841C80.4861 7.28841 81.9541 5.85872 81.9541 3.8354C81.9541 1.81208 80.4416 0.38239 78.4846 0.38239Z" fill="black"/>
<path d="M107.947 29.8337C107.068 29.8337 106.579 29.34 106.579 28.3553V18.3399C106.579 12.4199 102.769 9.06689 96.513 9.06689C90.2572 9.06689 87.1813 12.3712 86.0067 16.2179L90.6979 17.7475C91.2834 15.1318 92.9952 13.3072 96.4635 13.3072C99.9318 13.3072 101.641 15.1818 101.641 17.995V19.5734H94.3135C89.0368 19.5734 85.1266 22.1378 85.1266 27.0718C85.1266 32.0057 89.0355 34.7676 94.1662 34.7676C99.2968 34.7676 100.911 32.2019 101.641 30.6223H102.423V30.771C102.423 32.7918 103.987 34.0753 106.236 34.0753H109.998V29.8324H107.945L107.947 29.8337ZM101.644 24.0112C101.644 28.1078 98.9082 30.5735 94.9014 30.5735C91.9221 30.5735 90.1619 29.1438 90.1619 26.9218C90.1619 24.6998 91.9221 23.52 94.6093 23.52H101.644V24.0112Z" fill="black"/>
<path d="M23.7953 23.1402C23.7148 29.6788 18.3057 35.0001 11.7392 35.0001H0V18.9386L0.0507494 18.9361H4.93136V21.7167H4.92888V30.0212H11.7652C13.638 30.0212 15.4835 29.2414 16.8278 27.8817C18.1473 26.547 18.8714 24.8011 18.8664 22.9652C18.8615 21.0981 18.1373 19.3373 16.8253 18.01C16.7584 17.9426 16.6867 17.8776 16.6173 17.8151L19.567 13.8047L19.5992 13.8322C19.8393 14.0346 20.0794 14.2583 20.3121 14.4933C22.5959 16.8015 23.8324 19.8721 23.7953 23.1402Z" fill="black"/>
<path d="M19.489 7.13222C19.4296 8.48693 18.9568 9.78915 18.1213 10.9027L16.1631 13.5159C15.6234 14.2357 15.0652 14.978 14.528 15.7141L14.4772 15.7841C14.4475 15.8266 14.4178 15.8653 14.3893 15.9053L14.1863 16.2015H14.1702L11.3097 20.2982L7.36362 17.285L7.49978 17.1013C7.49978 17.1013 8.33033 15.9716 9.11014 14.9081L10.1041 13.5546C10.2105 13.4096 11.3283 11.885 11.3283 11.885L14.2111 7.95455C14.6864 7.30718 14.7 6.45987 14.2507 5.79126C13.9066 5.27637 13.3533 4.98143 12.7307 4.98143H4.93012V16.0291H0V0H12.7505C14.6121 0 16.3327 0.738592 17.6014 2.07456C18.8862 3.42927 19.5732 5.27387 19.4903 7.13222H19.489Z" fill="black"/>
</svg>
