<svg width="25" height="24" viewBox="0 0 25 24" fill="none" xmlns="http://www.w3.org/2000/svg">
<g clip-path="url(#clip0_67_607)">
<path d="M21.9491 12.7937C21.9491 14.828 21.3459 16.8167 20.2157 18.5082C19.0855 20.1996 17.4791 21.518 15.5996 22.2965C13.7201 23.075 11.652 23.2787 9.65679 22.8818C7.66156 22.4849 5.82882 21.5053 4.39034 20.0668C2.95185 18.6283 1.97223 16.7956 1.57536 14.8004C1.17848 12.8051 1.38217 10.737 2.16067 8.85755C2.93918 6.97808 4.25752 5.37168 5.949 4.24147C7.64048 3.11126 9.62911 2.50801 11.6634 2.50801M1.37772 12.7937H13.2457" stroke="#DCA15D" stroke-width="1.8" stroke-linecap="round" stroke-linejoin="round"/>
<path d="M11.6635 2.50801C9.28698 5.43012 7.90136 9.03227 7.70688 12.7937C7.90136 16.5552 9.28698 20.1573 11.6635 23.0794C13.5262 20.7886 14.7883 18.0695 15.3355 15.168" stroke="#DCA15D" stroke-width="1.8" stroke-linecap="round" stroke-linejoin="round"/>
<path d="M13.1926 6.80572C12.5926 6.70286 12.5926 5.83886 13.1926 5.73429C14.2583 5.54917 15.2447 5.05082 16.026 4.30278C16.8073 3.55475 17.3481 2.59094 17.5794 1.53429L17.6137 1.368C17.7457 0.773146 18.5909 0.768004 18.728 1.36286L18.7709 1.55658C19.0111 2.60844 19.5568 3.56587 20.3394 4.30855C21.122 5.05124 22.1067 5.54607 23.1697 5.73086C23.7732 5.83543 23.7732 6.70458 23.1697 6.81086C22.1067 6.99565 21.122 7.49048 20.3394 8.23317C19.5568 8.97586 19.0111 9.93328 18.7709 10.9851L18.728 11.1771C18.5909 11.7703 17.7457 11.7669 17.6137 11.172L17.5794 11.0074C17.3481 9.95078 16.8073 8.98697 16.026 8.23894C15.2447 7.4909 14.2583 6.99083 13.1926 6.80572Z" stroke="#DCA15D" stroke-width="1.8" stroke-linecap="round" stroke-linejoin="round"/>
</g>
<defs>
<clipPath id="clip0_67_607">
<rect width="24" height="24" fill="white" transform="translate(0.5)"/>
</clipPath>
</defs>
</svg>
