<svg width="24" height="24" viewBox="0 0 24 24" fill="none" xmlns="http://www.w3.org/2000/svg">
<g clip-path="url(#clip0_1_35)">
<path d="M10.3234 7.45215C9.15492 8.33773 8.0494 9.30349 7.01486 10.3424C2.13943 15.2179 -0.32914 20.6504 1.49829 22.4796C3.32572 24.307 8.76 21.8367 13.6337 16.963C14.6727 15.9279 15.6385 14.8218 16.524 13.6527" stroke="#DCA15D" stroke-width="1.8" stroke-linecap="round" stroke-linejoin="round"/>
<path d="M16.524 13.6524C19.3988 17.4684 20.5697 21.0582 19.1503 22.4776C17.3211 24.3067 11.8885 21.8364 7.01312 16.9627C2.14112 12.0856 -0.327454 6.65473 1.49997 4.82559C2.9194 3.40788 6.50912 4.57873 10.3251 7.45188" stroke="#DCA15D" stroke-width="1.8" stroke-linecap="round" stroke-linejoin="round"/>
<path d="M9.46631 13.6525C9.46631 13.8798 9.55661 14.0979 9.71736 14.2586C9.87811 14.4193 10.0961 14.5097 10.3235 14.5097C10.5508 14.5097 10.7688 14.4193 10.9295 14.2586C11.0903 14.0979 11.1806 13.8798 11.1806 13.6525C11.1806 13.4252 11.0903 13.2072 10.9295 13.0464C10.7688 12.8857 10.5508 12.7954 10.3235 12.7954C10.0961 12.7954 9.87811 12.8857 9.71736 13.0464C9.55661 13.2072 9.46631 13.4252 9.46631 13.6525ZM13.7692 6.18851C13.2292 6.09423 13.2292 5.32108 13.7692 5.22851C14.7229 5.0626 15.6056 4.61643 16.3048 3.94689C17.0039 3.27734 17.4879 2.41474 17.6949 1.46908L17.7257 1.31994C17.8423 0.788511 18.6 0.785083 18.72 1.3148L18.7612 1.48794C18.9759 2.42941 19.4641 3.28643 20.1644 3.95134C20.8647 4.61624 21.7458 5.05938 22.6972 5.22508C23.2389 5.31937 23.2389 6.09765 22.6972 6.19023C21.7458 6.35593 20.8647 6.79907 20.1644 7.46397C19.4641 8.12888 18.9759 8.98589 18.7612 9.92737L18.72 10.1005C18.6 10.6319 17.8423 10.6285 17.7257 10.0971L17.6915 9.94794C17.4844 9.00228 17.0005 8.13969 16.3013 7.47014C15.6022 6.80059 14.7195 6.35442 13.7657 6.18851H13.7692Z" stroke="#DCA15D" stroke-width="1.8" stroke-linecap="round" stroke-linejoin="round"/>
</g>
<defs>
<clipPath id="clip0_1_35">
<rect width="24" height="24" fill="white"/>
</clipPath>
</defs>
</svg>
