<svg width="619" height="426" viewBox="0 0 619 426" fill="none" xmlns="http://www.w3.org/2000/svg">
<g filter="url(#filter0_d_67_73)">
<rect x="15" y="10.5" width="480" height="395" rx="20" fill="white"/>
<rect x="60.5" y="54.5" width="171.197" height="9" rx="4.5" fill="#DDA15E"/>
<rect x="60.5" y="73.5" width="294.16" height="9" rx="4.5" fill="#F9EFE4"/>
</g>
<path d="M365.302 247.446L358.721 243.646V251.245L365.302 247.446ZM281.065 336.289H282.408V334.973H281.065V336.289ZM285.093 336.289H287.779V334.973H285.093V336.289ZM290.464 336.289H293.149V334.973H290.464V336.289ZM295.835 336.289H298.52V334.973H295.835V336.289ZM301.206 336.289H303.891V334.973H301.206V336.289ZM306.576 336.289H307.919V334.973H306.576V336.289ZM307.919 336.289C308.39 336.289 308.854 336.258 309.31 336.199L309.14 334.894C308.741 334.946 308.333 334.973 307.919 334.973V336.289ZM311.999 335.48C312.866 335.121 313.675 334.65 314.408 334.087L313.606 333.043C312.963 333.537 312.254 333.949 311.495 334.264L311.999 335.48ZM316.375 332.12C316.938 331.387 317.409 330.578 317.768 329.711L316.552 329.207C316.237 329.966 315.825 330.675 315.331 331.318L316.375 332.12ZM318.487 327.022C318.546 326.566 318.577 326.102 318.577 325.631H317.261C317.261 326.045 317.234 326.453 317.182 326.852L318.487 327.022ZM318.577 325.631V324.32H317.261V325.631H318.577ZM318.577 321.697V319.075H317.261V321.697H318.577ZM318.577 316.452V313.83H317.261V316.452H318.577ZM318.577 311.207V308.585H317.261V311.207H318.577ZM318.577 305.962V303.34H317.261V305.962H318.577ZM318.577 300.717V298.095H317.261V300.717H318.577ZM318.577 295.472V292.85H317.261V295.472H318.577ZM318.577 290.227V287.605H317.261V290.227H318.577ZM318.577 284.982V282.36H317.261V284.982H318.577ZM318.577 279.737V277.115H317.261V279.737H318.577ZM318.577 274.492V271.87H317.261V274.492H318.577ZM318.577 269.247V266.625H317.261V269.247H318.577ZM318.577 264.002V261.38H317.261V264.002H318.577ZM318.577 258.757V257.446H317.261V258.757H318.577ZM318.577 257.446C318.577 257.032 318.604 256.624 318.656 256.225L317.351 256.055C317.291 256.51 317.261 256.975 317.261 257.446H318.577ZM319.286 253.87C319.6 253.111 320.013 252.402 320.507 251.759L319.463 250.957C318.9 251.69 318.429 252.499 318.07 253.366L319.286 253.87ZM322.232 250.034C322.875 249.539 323.584 249.127 324.343 248.813L323.839 247.597C322.972 247.956 322.163 248.427 321.43 248.99L322.232 250.034ZM326.698 248.183C327.097 248.131 327.505 248.104 327.919 248.104V246.788C327.448 246.788 326.983 246.818 326.528 246.878L326.698 248.183ZM327.919 248.104H329.254V246.788H327.919V248.104ZM331.924 248.104H334.594V246.788H331.924V248.104ZM337.265 248.104H339.935V246.788H337.265V248.104ZM342.605 248.104H345.275V246.788H342.605V248.104ZM347.946 248.104H350.616V246.788H347.946V248.104ZM353.286 248.104H355.956V246.788H353.286V248.104ZM358.626 248.104H361.297V246.788H358.626V248.104Z" fill="black"/>
<path d="M85.8238 213.554L85.8238 214.87L87.14 214.87L87.14 213.554L85.8238 213.554ZM85.8238 217.503L85.8238 220.135L87.14 220.135L87.14 217.503L85.8238 217.503ZM85.8238 222.768L85.8238 225.4L87.14 225.4L87.14 222.768L85.8238 222.768ZM85.8238 228.032L85.8238 230.665L87.14 230.665L87.14 228.032L85.8238 228.032ZM85.8238 233.297L85.8238 235.93L87.14 235.93L87.14 233.297L85.8238 233.297ZM85.8238 238.562L85.8238 241.194L87.14 241.194L87.14 238.562L85.8238 238.562ZM85.8238 243.827L85.8238 246.459L87.14 246.459L87.14 243.827L85.8238 243.827ZM85.8238 249.091L85.8238 251.724L87.14 251.724L87.14 249.091L85.8238 249.091ZM85.8238 254.356L85.8238 256.989L87.14 256.989L87.14 254.356L85.8238 254.356ZM85.8238 259.621L85.8238 262.253L87.14 262.253L87.14 259.621L85.8238 259.621ZM85.8238 264.886L85.8238 267.518L87.14 267.518L87.14 264.886L85.8238 264.886ZM85.8238 270.151L85.8238 272.783L87.14 272.783L87.14 270.151L85.8238 270.151ZM85.8238 275.415L85.8238 278.048L87.14 278.048L87.14 275.415L85.8238 275.415ZM85.8238 280.68L85.8238 283.313L87.14 283.313L87.14 280.68L85.8238 280.68ZM85.8238 285.945L85.8238 288.577L87.14 288.577L87.14 285.945L85.8238 285.945ZM85.8238 291.21L85.8238 293.842L87.14 293.842L87.14 291.21L85.8238 291.21ZM85.8238 296.475L85.8238 299.107L87.14 299.107L87.14 296.475L85.8238 296.475ZM85.8238 301.739L85.8238 304.372L87.14 304.372L87.14 301.739L85.8238 301.739ZM85.8238 307.004L85.8238 308.32L87.14 308.32L87.14 307.004L85.8238 307.004Z" fill="black"/>
<g filter="url(#filter1_d_67_73)">
<rect width="223.753" height="53.964" transform="translate(61 166.5)" fill="white"/>
<rect x="68.2391" y="173.739" width="39.4859" height="39.4859" rx="19.7429" fill="#F9EFE4"/>
<g clip-path="url(#clip0_67_73)">
<path d="M97.3927 188.253C97.3927 190.564 93.1788 192.436 87.9819 192.436C82.7851 192.436 78.5711 190.564 78.5711 188.253M97.3927 188.253C97.3927 185.943 93.1788 184.071 87.9819 184.071C82.7851 184.071 78.5711 185.943 78.5711 188.253M97.3927 188.253V193.482M78.5711 188.253V193.482M78.5711 193.482C78.5711 195.792 82.7851 197.664 87.9819 197.664M78.5711 193.482V198.71C78.5711 201.021 82.7851 202.892 87.9819 202.892M94.2558 196.619V199.755M94.2558 199.755V202.892M94.2558 199.755H97.3927M94.2558 199.755H91.1189" stroke="#DCA15D" stroke-width="1.71105" stroke-linecap="round" stroke-linejoin="round"/>
</g>
<path d="M117.337 198.482V188.347H118.901V198.482H117.337ZM121.057 198.482V191.344H122.519V192.416H122.751C122.886 192.126 123.127 191.856 123.474 191.605C123.822 191.354 124.338 191.228 125.024 191.228C125.564 191.228 126.042 191.349 126.457 191.59C126.882 191.832 127.215 192.174 127.456 192.618C127.697 193.053 127.818 193.579 127.818 194.196V198.482H126.327V194.312C126.327 193.694 126.172 193.241 125.863 192.951C125.555 192.652 125.13 192.502 124.589 192.502C123.972 192.502 123.474 192.705 123.098 193.111C122.731 193.516 122.548 194.105 122.548 194.877V198.482H121.057ZM132.445 198.482C132.01 198.482 131.663 198.352 131.402 198.091C131.151 197.83 131.026 197.483 131.026 197.049V192.604H129.057V191.344H131.026V188.984H132.517V191.344H134.645V192.604H132.517V196.788C132.517 197.078 132.652 197.222 132.922 197.222H134.414V198.482H132.445ZM139.415 198.685C138.691 198.685 138.059 198.535 137.518 198.236C136.978 197.927 136.553 197.497 136.244 196.947C135.945 196.387 135.795 195.741 135.795 195.007V194.833C135.795 194.09 135.945 193.444 136.244 192.893C136.543 192.334 136.958 191.904 137.489 191.605C138.03 191.296 138.652 191.142 139.357 191.142C140.042 191.142 140.641 191.296 141.152 191.605C141.673 191.904 142.079 192.324 142.368 192.864C142.658 193.405 142.803 194.037 142.803 194.761V195.326H137.315C137.335 195.953 137.542 196.455 137.938 196.831C138.343 197.198 138.845 197.382 139.444 197.382C140.004 197.382 140.423 197.256 140.703 197.005C140.993 196.754 141.215 196.465 141.369 196.136L142.6 196.774C142.465 197.044 142.267 197.329 142.006 197.628C141.755 197.927 141.422 198.178 141.007 198.381C140.592 198.583 140.062 198.685 139.415 198.685ZM137.33 194.182H141.283C141.244 193.641 141.051 193.222 140.703 192.922C140.356 192.613 139.902 192.459 139.342 192.459C138.783 192.459 138.324 192.613 137.967 192.922C137.62 193.222 137.407 193.641 137.33 194.182ZM144.25 194.949V194.732C144.25 193.979 144.4 193.337 144.699 192.806C145.008 192.276 145.413 191.865 145.915 191.576C146.417 191.286 146.967 191.142 147.566 191.142C148.261 191.142 148.792 191.272 149.158 191.532C149.535 191.793 149.81 192.073 149.984 192.372H150.215V191.344H151.663V199.944C151.663 200.379 151.533 200.726 151.272 200.987C151.021 201.247 150.674 201.378 150.23 201.378H145.423V200.075H149.766C150.046 200.075 150.186 199.93 150.186 199.64V197.367H149.955C149.849 197.541 149.699 197.719 149.506 197.903C149.313 198.086 149.057 198.236 148.739 198.352C148.43 198.467 148.039 198.525 147.566 198.525C146.967 198.525 146.412 198.385 145.901 198.106C145.399 197.816 144.998 197.406 144.699 196.875C144.4 196.334 144.25 195.692 144.25 194.949ZM147.971 197.222C148.618 197.222 149.149 197.02 149.564 196.614C149.988 196.199 150.201 195.63 150.201 194.906V194.776C150.201 194.032 149.993 193.463 149.578 193.067C149.163 192.662 148.628 192.459 147.971 192.459C147.334 192.459 146.803 192.662 146.379 193.067C145.964 193.463 145.756 194.032 145.756 194.776V194.906C145.756 195.63 145.964 196.199 146.379 196.614C146.803 197.02 147.334 197.222 147.971 197.222ZM153.859 198.482V191.344H155.321V192.184H155.553C155.668 191.885 155.852 191.668 156.103 191.532C156.363 191.388 156.682 191.315 157.058 191.315H157.913V192.662H157C156.518 192.662 156.122 192.797 155.813 193.067C155.504 193.328 155.35 193.733 155.35 194.283V198.482H153.859ZM161.475 198.685C160.963 198.685 160.505 198.598 160.099 198.424C159.704 198.25 159.385 197.995 159.144 197.657C158.912 197.319 158.796 196.909 158.796 196.426C158.796 195.934 158.912 195.528 159.144 195.21C159.385 194.882 159.709 194.636 160.114 194.471C160.529 194.307 160.997 194.225 161.518 194.225H163.69V193.762C163.69 193.347 163.565 193.014 163.314 192.763C163.063 192.512 162.677 192.387 162.155 192.387C161.644 192.387 161.253 192.507 160.983 192.749C160.712 192.99 160.534 193.304 160.447 193.69L159.057 193.241C159.173 192.855 159.356 192.507 159.607 192.198C159.868 191.88 160.21 191.624 160.635 191.431C161.06 191.238 161.571 191.142 162.17 191.142C163.096 191.142 163.825 191.378 164.356 191.851C164.887 192.324 165.152 192.995 165.152 193.863V196.802C165.152 197.092 165.287 197.237 165.558 197.237H166.166V198.482H165.051C164.713 198.482 164.438 198.395 164.226 198.221C164.013 198.048 163.907 197.811 163.907 197.512V197.468H163.69C163.613 197.613 163.497 197.782 163.343 197.975C163.188 198.168 162.961 198.337 162.662 198.482C162.363 198.617 161.967 198.685 161.475 198.685ZM161.692 197.454C162.29 197.454 162.773 197.285 163.14 196.947C163.507 196.6 163.69 196.127 163.69 195.528V195.384H161.605C161.209 195.384 160.891 195.47 160.65 195.644C160.408 195.808 160.288 196.054 160.288 196.383C160.288 196.711 160.413 196.971 160.664 197.164C160.915 197.357 161.258 197.454 161.692 197.454ZM169.799 198.482C169.365 198.482 169.018 198.352 168.757 198.091C168.506 197.83 168.381 197.483 168.381 197.049V192.604H166.411V191.344H168.381V188.984H169.872V191.344H172V192.604H169.872V196.788C169.872 197.078 170.007 197.222 170.277 197.222H171.768V198.482H169.799ZM176.77 198.685C176.046 198.685 175.413 198.535 174.873 198.236C174.332 197.927 173.908 197.497 173.599 196.947C173.3 196.387 173.15 195.741 173.15 195.007V194.833C173.15 194.09 173.3 193.444 173.599 192.893C173.898 192.334 174.313 191.904 174.844 191.605C175.384 191.296 176.007 191.142 176.712 191.142C177.397 191.142 177.995 191.296 178.507 191.605C179.028 191.904 179.434 192.324 179.723 192.864C180.013 193.405 180.157 194.037 180.157 194.761V195.326H174.67C174.69 195.953 174.897 196.455 175.293 196.831C175.698 197.198 176.2 197.382 176.799 197.382C177.358 197.382 177.778 197.256 178.058 197.005C178.348 196.754 178.57 196.465 178.724 196.136L179.955 196.774C179.82 197.044 179.622 197.329 179.361 197.628C179.11 197.927 178.777 198.178 178.362 198.381C177.947 198.583 177.416 198.685 176.77 198.685ZM174.685 194.182H178.637C178.599 193.641 178.406 193.222 178.058 192.922C177.711 192.613 177.257 192.459 176.697 192.459C176.137 192.459 175.679 192.613 175.322 192.922C174.974 193.222 174.762 193.641 174.685 194.182ZM189.364 198.685C188.128 198.685 187.148 198.337 186.425 197.642C185.701 196.938 185.339 195.924 185.339 194.602V192.227C185.339 190.905 185.701 189.896 186.425 189.201C187.148 188.497 188.128 188.145 189.364 188.145C190.58 188.145 191.516 188.482 192.172 189.158C192.838 189.834 193.171 190.755 193.171 191.923V192.01H191.622V191.88C191.622 191.195 191.434 190.635 191.058 190.2C190.691 189.766 190.126 189.549 189.364 189.549C188.591 189.549 187.988 189.785 187.554 190.258C187.12 190.722 186.902 191.368 186.902 192.198V194.631C186.902 195.451 187.12 196.098 187.554 196.571C187.988 197.044 188.591 197.28 189.364 197.28C190.126 197.28 190.691 197.063 191.058 196.629C191.434 196.185 191.622 195.625 191.622 194.949V194.703H193.171V194.906C193.171 196.074 192.838 196.996 192.172 197.671C191.516 198.347 190.58 198.685 189.364 198.685ZM194.903 198.482V188.347H199.159C199.787 188.347 200.337 188.458 200.81 188.68C201.292 188.893 201.664 189.201 201.925 189.607C202.195 190.012 202.33 190.495 202.33 191.055V191.214C202.33 191.851 202.176 192.363 201.867 192.749C201.567 193.125 201.201 193.39 200.766 193.545V193.777C201.133 193.796 201.427 193.921 201.649 194.153C201.871 194.375 201.982 194.698 201.982 195.123V198.482H200.404V195.34C200.404 195.08 200.337 194.872 200.202 194.718C200.067 194.563 199.849 194.486 199.55 194.486H196.466V198.482H194.903ZM196.466 193.067H198.986C199.545 193.067 199.98 192.927 200.289 192.647C200.597 192.358 200.752 191.967 200.752 191.475V191.359C200.752 190.866 200.597 190.48 200.289 190.2C199.989 189.911 199.555 189.766 198.986 189.766H196.466V193.067ZM204.05 198.482V188.347H206.99L209.205 197.44H209.436L211.652 188.347H214.591V198.482H213.07V189.448H212.839L210.638 198.482H208.003L205.802 189.448H205.571V198.482H204.05ZM220.019 198.482V197.092H221.379V189.737H220.019V188.347H224.072C225.424 188.347 226.456 188.69 227.171 189.375C227.895 190.06 228.257 191.093 228.257 192.474V194.37C228.257 195.75 227.895 196.783 227.171 197.468C226.456 198.144 225.424 198.482 224.072 198.482H220.019ZM222.958 197.063H224.087C224.965 197.063 225.617 196.841 226.041 196.397C226.466 195.953 226.678 195.292 226.678 194.414V192.416C226.678 191.528 226.466 190.866 226.041 190.432C225.617 189.998 224.965 189.781 224.087 189.781H222.958V197.063ZM232.282 198.685C231.771 198.685 231.312 198.598 230.907 198.424C230.511 198.25 230.192 197.995 229.951 197.657C229.719 197.319 229.604 196.909 229.604 196.426C229.604 195.934 229.719 195.528 229.951 195.21C230.192 194.882 230.516 194.636 230.921 194.471C231.336 194.307 231.804 194.225 232.326 194.225H234.497V193.762C234.497 193.347 234.372 193.014 234.121 192.763C233.87 192.512 233.484 192.387 232.963 192.387C232.451 192.387 232.06 192.507 231.79 192.749C231.52 192.99 231.341 193.304 231.254 193.69L229.864 193.241C229.98 192.855 230.163 192.507 230.414 192.198C230.675 191.88 231.018 191.624 231.442 191.431C231.867 191.238 232.379 191.142 232.977 191.142C233.904 191.142 234.632 191.378 235.163 191.851C235.694 192.324 235.96 192.995 235.96 193.863V196.802C235.96 197.092 236.095 197.237 236.365 197.237H236.973V198.482H235.858C235.52 198.482 235.245 198.395 235.033 198.221C234.821 198.048 234.714 197.811 234.714 197.512V197.468H234.497C234.42 197.613 234.304 197.782 234.15 197.975C233.995 198.168 233.769 198.337 233.469 198.482C233.17 198.617 232.774 198.685 232.282 198.685ZM232.499 197.454C233.098 197.454 233.58 197.285 233.947 196.947C234.314 196.6 234.497 196.127 234.497 195.528V195.384H232.412C232.017 195.384 231.698 195.47 231.457 195.644C231.216 195.808 231.095 196.054 231.095 196.383C231.095 196.711 231.22 196.971 231.471 197.164C231.722 197.357 232.065 197.454 232.499 197.454ZM240.607 198.482C240.172 198.482 239.825 198.352 239.564 198.091C239.313 197.83 239.188 197.483 239.188 197.049V192.604H237.219V191.344H239.188V188.984H240.679V191.344H242.807V192.604H240.679V196.788C240.679 197.078 240.814 197.222 241.084 197.222H242.576V198.482H240.607ZM246.76 198.685C246.249 198.685 245.79 198.598 245.385 198.424C244.989 198.25 244.671 197.995 244.429 197.657C244.198 197.319 244.082 196.909 244.082 196.426C244.082 195.934 244.198 195.528 244.429 195.21C244.671 194.882 244.994 194.636 245.399 194.471C245.814 194.307 246.282 194.225 246.804 194.225H248.975V193.762C248.975 193.347 248.85 193.014 248.599 192.763C248.348 192.512 247.962 192.387 247.441 192.387C246.929 192.387 246.538 192.507 246.268 192.749C245.998 192.99 245.819 193.304 245.732 193.69L244.342 193.241C244.458 192.855 244.642 192.507 244.893 192.198C245.153 191.88 245.496 191.624 245.921 191.431C246.345 191.238 246.857 191.142 247.455 191.142C248.382 191.142 249.111 191.378 249.641 191.851C250.172 192.324 250.438 192.995 250.438 193.863V196.802C250.438 197.092 250.573 197.237 250.843 197.237H251.451V198.482H250.336C249.999 198.482 249.723 198.395 249.511 198.221C249.299 198.048 249.193 197.811 249.193 197.512V197.468H248.975C248.898 197.613 248.782 197.782 248.628 197.975C248.473 198.168 248.247 198.337 247.947 198.482C247.648 198.617 247.252 198.685 246.76 198.685ZM246.977 197.454C247.576 197.454 248.058 197.285 248.425 196.947C248.792 196.6 248.975 196.127 248.975 195.528V195.384H246.891C246.495 195.384 246.176 195.47 245.935 195.644C245.694 195.808 245.573 196.054 245.573 196.383C245.573 196.711 245.699 196.971 245.949 197.164C246.2 197.357 246.543 197.454 246.977 197.454Z" fill="black"/>
</g>
<g filter="url(#filter2_d_67_73)">
<rect width="223.753" height="53.964" transform="translate(61 304.536)" fill="white"/>
<rect x="68.239" y="311.775" width="39.4859" height="39.4859" rx="19.7429" fill="#F9EFE4"/>
<g clip-path="url(#clip1_67_73)">
<path d="M95.2685 321.963C95.8232 321.963 96.3551 322.183 96.7473 322.575C97.1395 322.968 97.3598 323.5 97.3598 324.054V338.693C97.3598 339.248 97.1395 339.78 96.7473 340.172C96.3551 340.564 95.8232 340.784 95.2685 340.784H80.6295C80.0749 340.784 79.5429 340.564 79.1507 340.172C78.7585 339.78 78.5382 339.248 78.5382 338.693V324.054C78.5382 323.5 78.7585 322.968 79.1507 322.575C79.5429 322.183 80.0749 321.963 80.6295 321.963H95.2685ZM95.2685 324.054H80.6295V338.693H95.2685V324.054ZM87.9877 326.908C88.2711 326 89.4934 325.914 89.9221 326.715L89.9765 326.83L91.7938 331.374H93.1772C93.4437 331.374 93.7001 331.476 93.8939 331.659C94.0877 331.842 94.2043 332.092 94.2199 332.358C94.2355 332.624 94.149 332.886 93.9779 333.09C93.8069 333.295 93.5642 333.426 93.2996 333.458L93.1772 333.465H91.0933C90.9039 333.465 90.718 333.414 90.555 333.318C90.392 333.222 90.2579 333.083 90.1668 332.917L90.1125 332.802L89.116 330.309L87.3865 335.844C87.1156 336.71 85.9696 336.84 85.497 336.11L85.4342 336.001L84.1648 333.465H82.7208C82.4543 333.465 82.1979 333.363 82.0041 333.18C81.8103 332.997 81.6937 332.747 81.6781 332.481C81.6625 332.215 81.749 331.953 81.9201 331.748C82.0912 331.544 82.3338 331.412 82.5985 331.381L82.7208 331.374H84.8058C85.1613 331.374 85.4897 331.551 85.6841 331.843L85.75 331.958L86.1557 332.77L87.9877 326.908Z" fill="#DCA15D"/>
</g>
<path d="M116.584 327.518L119.48 317.383H122.231L125.112 327.518H123.505L122.839 325.129H118.872L118.206 327.518H116.584ZM119.263 323.681H122.448L120.971 318.353H120.739L119.263 323.681ZM129.482 327.721C128.893 327.721 128.348 327.576 127.846 327.286C127.344 326.997 126.939 326.582 126.63 326.041C126.33 325.491 126.181 324.83 126.181 324.058V323.841C126.181 323.078 126.33 322.422 126.63 321.872C126.929 321.321 127.329 320.902 127.831 320.612C128.333 320.322 128.883 320.178 129.482 320.178C129.945 320.178 130.331 320.236 130.64 320.351C130.959 320.467 131.219 320.617 131.422 320.8C131.625 320.974 131.779 321.157 131.885 321.35H132.117V317.383H133.608V327.518H132.146V326.505H131.914C131.731 326.813 131.451 327.093 131.075 327.344C130.708 327.595 130.177 327.721 129.482 327.721ZM129.902 326.418C130.548 326.418 131.079 326.21 131.494 325.795C131.919 325.38 132.131 324.787 132.131 324.014V323.884C132.131 323.122 131.924 322.533 131.509 322.118C131.094 321.703 130.558 321.495 129.902 321.495C129.265 321.495 128.734 321.703 128.309 322.118C127.894 322.533 127.687 323.122 127.687 323.884V324.014C127.687 324.787 127.894 325.38 128.309 325.795C128.734 326.21 129.265 326.418 129.902 326.418ZM138.757 327.721C138.168 327.721 137.623 327.576 137.121 327.286C136.619 326.997 136.214 326.582 135.905 326.041C135.606 325.491 135.456 324.83 135.456 324.058V323.841C135.456 323.078 135.606 322.422 135.905 321.872C136.204 321.321 136.605 320.902 137.106 320.612C137.608 320.322 138.159 320.178 138.757 320.178C139.22 320.178 139.606 320.236 139.915 320.351C140.234 320.467 140.494 320.617 140.697 320.8C140.9 320.974 141.054 321.157 141.16 321.35H141.392V317.383H142.883V327.518H141.421V326.505H141.189C141.006 326.813 140.726 327.093 140.35 327.344C139.983 327.595 139.452 327.721 138.757 327.721ZM139.177 326.418C139.824 326.418 140.354 326.21 140.769 325.795C141.194 325.38 141.406 324.787 141.406 324.014V323.884C141.406 323.122 141.199 322.533 140.784 322.118C140.369 321.703 139.833 321.495 139.177 321.495C138.54 321.495 138.009 321.703 137.584 322.118C137.169 322.533 136.962 323.122 136.962 323.884V324.014C136.962 324.787 137.169 325.38 137.584 325.795C138.009 326.21 138.54 326.418 139.177 326.418ZM148.725 327.518V317.383H154.98V318.802H150.289V321.727H154.603V323.146H150.289V327.518H148.725ZM156.545 327.518V320.38H158.036V327.518H156.545ZM157.298 319.41C157.008 319.41 156.762 319.319 156.56 319.135C156.367 318.942 156.27 318.696 156.27 318.397C156.27 318.098 156.367 317.856 156.56 317.673C156.762 317.48 157.008 317.383 157.298 317.383C157.597 317.383 157.843 317.48 158.036 317.673C158.229 317.856 158.326 318.098 158.326 318.397C158.326 318.696 158.229 318.942 158.036 319.135C157.843 319.319 157.597 319.41 157.298 319.41ZM160.249 327.518V320.38H161.712V321.452H161.943C162.079 321.162 162.32 320.892 162.667 320.641C163.015 320.39 163.531 320.265 164.216 320.265C164.757 320.265 165.235 320.385 165.65 320.626C166.074 320.868 166.407 321.21 166.649 321.654C166.89 322.089 167.011 322.615 167.011 323.233V327.518H165.519V323.348C165.519 322.731 165.365 322.277 165.056 321.987C164.747 321.688 164.323 321.539 163.782 321.539C163.164 321.539 162.667 321.741 162.291 322.147C161.924 322.552 161.741 323.141 161.741 323.913V327.518H160.249ZM171.372 327.721C170.86 327.721 170.402 327.634 169.997 327.46C169.601 327.286 169.282 327.031 169.041 326.693C168.809 326.355 168.694 325.945 168.694 325.462C168.694 324.97 168.809 324.565 169.041 324.246C169.282 323.918 169.606 323.672 170.011 323.508C170.426 323.344 170.894 323.261 171.415 323.261H173.587V322.798C173.587 322.383 173.462 322.05 173.211 321.799C172.96 321.548 172.574 321.423 172.053 321.423C171.541 321.423 171.15 321.543 170.88 321.785C170.61 322.026 170.431 322.34 170.344 322.726L168.954 322.277C169.07 321.891 169.253 321.543 169.504 321.235C169.765 320.916 170.108 320.66 170.532 320.467C170.957 320.274 171.469 320.178 172.067 320.178C172.994 320.178 173.722 320.414 174.253 320.887C174.784 321.36 175.05 322.031 175.05 322.9V325.839C175.05 326.128 175.185 326.273 175.455 326.273H176.063V327.518H174.948C174.61 327.518 174.335 327.431 174.123 327.257C173.911 327.084 173.804 326.847 173.804 326.548V326.505H173.587C173.51 326.649 173.394 326.818 173.24 327.011C173.085 327.204 172.858 327.373 172.559 327.518C172.26 327.653 171.864 327.721 171.372 327.721ZM171.589 326.49C172.188 326.49 172.67 326.321 173.037 325.983C173.404 325.636 173.587 325.163 173.587 324.565V324.42H171.502C171.107 324.42 170.788 324.507 170.547 324.68C170.305 324.844 170.185 325.091 170.185 325.419C170.185 325.747 170.31 326.008 170.561 326.201C170.812 326.394 171.155 326.49 171.589 326.49ZM177.513 327.518V320.38H178.975V321.452H179.207C179.342 321.162 179.583 320.892 179.931 320.641C180.278 320.39 180.795 320.265 181.48 320.265C182.02 320.265 182.498 320.385 182.913 320.626C183.338 320.868 183.671 321.21 183.912 321.654C184.154 322.089 184.274 322.615 184.274 323.233V327.518H182.783V323.348C182.783 322.731 182.629 322.277 182.32 321.987C182.011 321.688 181.586 321.539 181.046 321.539C180.428 321.539 179.931 321.741 179.554 322.147C179.188 322.552 179.004 323.141 179.004 323.913V327.518H177.513ZM189.736 327.721C189.051 327.721 188.428 327.576 187.868 327.286C187.318 326.997 186.879 326.577 186.551 326.027C186.232 325.477 186.073 324.815 186.073 324.043V323.855C186.073 323.083 186.232 322.427 186.551 321.886C186.879 321.336 187.318 320.916 187.868 320.626C188.428 320.327 189.051 320.178 189.736 320.178C190.421 320.178 191.005 320.303 191.488 320.554C191.97 320.805 192.356 321.138 192.646 321.553C192.945 321.968 193.138 322.427 193.225 322.928L191.777 323.233C191.729 322.914 191.628 322.624 191.473 322.364C191.319 322.103 191.102 321.896 190.822 321.741C190.542 321.587 190.19 321.51 189.765 321.51C189.35 321.51 188.973 321.606 188.636 321.799C188.307 321.983 188.047 322.253 187.854 322.61C187.661 322.957 187.564 323.382 187.564 323.884V324.014C187.564 324.516 187.661 324.946 187.854 325.303C188.047 325.66 188.307 325.93 188.636 326.114C188.973 326.297 189.35 326.389 189.765 326.389C190.392 326.389 190.87 326.23 191.198 325.911C191.526 325.583 191.734 325.168 191.821 324.666L193.269 324.999C193.153 325.491 192.945 325.945 192.646 326.36C192.356 326.775 191.97 327.108 191.488 327.359C191.005 327.6 190.421 327.721 189.736 327.721ZM194.989 327.518V320.38H196.48V327.518H194.989ZM195.741 319.41C195.452 319.41 195.206 319.319 195.003 319.135C194.81 318.942 194.713 318.696 194.713 318.397C194.713 318.098 194.81 317.856 195.003 317.673C195.206 317.48 195.452 317.383 195.741 317.383C196.041 317.383 196.287 317.48 196.48 317.673C196.673 317.856 196.769 318.098 196.769 318.397C196.769 318.696 196.673 318.942 196.48 319.135C196.287 319.319 196.041 319.41 195.741 319.41ZM200.908 327.721C200.396 327.721 199.938 327.634 199.533 327.46C199.137 327.286 198.818 327.031 198.577 326.693C198.345 326.355 198.23 325.945 198.23 325.462C198.23 324.97 198.345 324.565 198.577 324.246C198.818 323.918 199.142 323.672 199.547 323.508C199.962 323.344 200.43 323.261 200.951 323.261H203.123V322.798C203.123 322.383 202.998 322.05 202.747 321.799C202.496 321.548 202.11 321.423 201.589 321.423C201.077 321.423 200.686 321.543 200.416 321.785C200.146 322.026 199.967 322.34 199.88 322.726L198.49 322.277C198.606 321.891 198.789 321.543 199.04 321.235C199.301 320.916 199.644 320.66 200.068 320.467C200.493 320.274 201.005 320.178 201.603 320.178C202.53 320.178 203.258 320.414 203.789 320.887C204.32 321.36 204.585 322.031 204.585 322.9V325.839C204.585 326.128 204.721 326.273 204.991 326.273H205.599V327.518H204.484C204.146 327.518 203.871 327.431 203.659 327.257C203.447 327.084 203.34 326.847 203.34 326.548V326.505H203.123C203.046 326.649 202.93 326.818 202.776 327.011C202.621 327.204 202.394 327.373 202.095 327.518C201.796 327.653 201.4 327.721 200.908 327.721ZM201.125 326.49C201.724 326.49 202.206 326.321 202.573 325.983C202.94 325.636 203.123 325.163 203.123 324.565V324.42H201.038C200.643 324.42 200.324 324.507 200.083 324.68C199.841 324.844 199.721 325.091 199.721 325.419C199.721 325.747 199.846 326.008 200.097 326.201C200.348 326.394 200.691 326.49 201.125 326.49ZM207.049 327.518V317.383H208.54V327.518H207.049ZM117.337 345.518V335.383H121.362C121.98 335.383 122.53 335.509 123.013 335.76C123.505 336.001 123.886 336.349 124.156 336.802C124.436 337.246 124.576 337.782 124.576 338.409V338.598C124.576 339.225 124.431 339.765 124.142 340.219C123.862 340.673 123.481 341.02 122.998 341.261C122.515 341.503 121.97 341.623 121.362 341.623H118.901V345.518H117.337ZM118.901 340.205H121.203C121.753 340.205 122.192 340.06 122.52 339.77C122.848 339.481 123.013 339.085 123.013 338.583V338.438C123.013 337.927 122.848 337.526 122.52 337.237C122.192 336.947 121.753 336.802 121.203 336.802H118.901V340.205ZM129.178 345.721C128.454 345.721 127.822 345.571 127.282 345.272C126.741 344.963 126.316 344.534 126.008 343.983C125.708 343.424 125.559 342.777 125.559 342.043V341.87C125.559 341.126 125.708 340.48 126.008 339.93C126.307 339.37 126.722 338.94 127.253 338.641C127.793 338.332 128.416 338.178 129.12 338.178C129.806 338.178 130.404 338.332 130.916 338.641C131.437 338.94 131.842 339.36 132.132 339.901C132.421 340.441 132.566 341.073 132.566 341.797V342.362H127.079C127.098 342.989 127.306 343.491 127.702 343.868C128.107 344.234 128.609 344.418 129.207 344.418C129.767 344.418 130.187 344.292 130.467 344.041C130.756 343.79 130.978 343.501 131.133 343.173L132.364 343.81C132.228 344.08 132.031 344.365 131.77 344.664C131.519 344.963 131.186 345.214 130.771 345.417C130.356 345.619 129.825 345.721 129.178 345.721ZM127.093 341.218H131.046C131.007 340.678 130.814 340.258 130.467 339.958C130.119 339.65 129.666 339.495 129.106 339.495C128.546 339.495 128.088 339.65 127.731 339.958C127.383 340.258 127.171 340.678 127.093 341.218ZM134.361 345.518V338.38H135.824V339.22H136.055C136.171 338.921 136.354 338.704 136.605 338.569C136.866 338.424 137.185 338.351 137.561 338.351H138.415V339.698H137.503C137.02 339.698 136.625 339.833 136.316 340.103C136.007 340.364 135.853 340.769 135.853 341.319V345.518H134.361ZM141.249 345.518V339.64H139.251V338.38H141.249V336.817C141.249 336.382 141.379 336.035 141.64 335.774C141.9 335.514 142.248 335.383 142.682 335.383H144.521V336.643H143.16C142.88 336.643 142.74 336.788 142.74 337.077V338.38H144.796V339.64H142.74V345.518H141.249ZM149.384 345.721C148.67 345.721 148.033 345.576 147.473 345.286C146.923 344.987 146.489 344.563 146.17 344.012C145.852 343.462 145.692 342.811 145.692 342.058V341.841C145.692 341.088 145.852 340.441 146.17 339.901C146.489 339.35 146.923 338.926 147.473 338.626C148.033 338.327 148.67 338.178 149.384 338.178C150.099 338.178 150.736 338.327 151.296 338.626C151.855 338.926 152.294 339.35 152.613 339.901C152.932 340.441 153.091 341.088 153.091 341.841V342.058C153.091 342.811 152.932 343.462 152.613 344.012C152.294 344.563 151.855 344.987 151.296 345.286C150.736 345.576 150.099 345.721 149.384 345.721ZM149.384 344.389C150.041 344.389 150.572 344.181 150.977 343.766C151.392 343.342 151.6 342.758 151.6 342.014V341.884C151.6 341.141 151.397 340.562 150.991 340.147C150.586 339.722 150.05 339.51 149.384 339.51C148.738 339.51 148.207 339.722 147.792 340.147C147.386 340.562 147.184 341.141 147.184 341.884V342.014C147.184 342.758 147.386 343.342 147.792 343.766C148.207 344.181 148.738 344.389 149.384 344.389ZM154.947 345.518V338.38H156.41V339.22H156.641C156.757 338.921 156.941 338.704 157.192 338.569C157.452 338.424 157.771 338.351 158.147 338.351H159.001V339.698H158.089C157.607 339.698 157.211 339.833 156.902 340.103C156.593 340.364 156.439 340.769 156.439 341.319V345.518H154.947ZM160.546 345.518V338.38H162.009V339.22H162.24C162.375 338.969 162.593 338.747 162.892 338.554C163.191 338.361 163.596 338.265 164.108 338.265C164.639 338.265 165.064 338.376 165.382 338.598C165.71 338.81 165.956 339.085 166.12 339.423H166.352C166.516 339.095 166.753 338.82 167.062 338.598C167.38 338.376 167.829 338.265 168.408 338.265C168.871 338.265 169.282 338.361 169.639 338.554C169.996 338.737 170.281 339.017 170.493 339.394C170.705 339.761 170.811 340.219 170.811 340.769V345.518H169.32V340.885C169.32 340.451 169.199 340.118 168.958 339.886C168.727 339.645 168.394 339.524 167.959 339.524C167.496 339.524 167.124 339.674 166.844 339.973C166.564 340.272 166.424 340.702 166.424 341.261V345.518H164.933V340.885C164.933 340.451 164.813 340.118 164.571 339.886C164.34 339.645 164.007 339.524 163.572 339.524C163.109 339.524 162.737 339.674 162.457 339.973C162.178 340.272 162.038 340.702 162.038 341.261V345.518H160.546ZM175.175 345.721C174.664 345.721 174.205 345.634 173.8 345.46C173.404 345.286 173.086 345.031 172.844 344.693C172.613 344.355 172.497 343.945 172.497 343.462C172.497 342.97 172.613 342.565 172.844 342.246C173.086 341.918 173.409 341.672 173.814 341.508C174.229 341.344 174.698 341.261 175.219 341.261H177.391V340.798C177.391 340.383 177.265 340.05 177.014 339.799C176.763 339.548 176.377 339.423 175.856 339.423C175.344 339.423 174.953 339.543 174.683 339.785C174.413 340.026 174.234 340.34 174.147 340.726L172.758 340.277C172.873 339.891 173.057 339.543 173.308 339.235C173.568 338.916 173.911 338.66 174.336 338.467C174.76 338.274 175.272 338.178 175.87 338.178C176.797 338.178 177.526 338.414 178.057 338.887C178.587 339.36 178.853 340.031 178.853 340.9V343.839C178.853 344.128 178.988 344.273 179.258 344.273H179.866V345.518H178.752C178.414 345.518 178.139 345.431 177.926 345.257C177.714 345.084 177.608 344.847 177.608 344.548V344.505H177.391C177.313 344.649 177.198 344.818 177.043 345.011C176.889 345.204 176.662 345.373 176.363 345.518C176.063 345.653 175.668 345.721 175.175 345.721ZM175.393 344.49C175.991 344.49 176.474 344.321 176.84 343.983C177.207 343.636 177.391 343.163 177.391 342.565V342.42H175.306C174.91 342.42 174.591 342.507 174.35 342.68C174.109 342.844 173.988 343.091 173.988 343.419C173.988 343.747 174.114 344.008 174.365 344.201C174.616 344.394 174.958 344.49 175.393 344.49ZM181.316 345.518V338.38H182.779V339.452H183.01C183.145 339.162 183.387 338.892 183.734 338.641C184.082 338.39 184.598 338.265 185.283 338.265C185.824 338.265 186.302 338.385 186.717 338.626C187.141 338.868 187.474 339.21 187.716 339.654C187.957 340.089 188.078 340.615 188.078 341.233V345.518H186.586V341.348C186.586 340.731 186.432 340.277 186.123 339.987C185.814 339.688 185.389 339.539 184.849 339.539C184.231 339.539 183.734 339.741 183.358 340.147C182.991 340.552 182.808 341.141 182.808 341.913V345.518H181.316ZM193.539 345.721C192.854 345.721 192.231 345.576 191.672 345.286C191.121 344.997 190.682 344.577 190.354 344.027C190.036 343.477 189.876 342.815 189.876 342.043V341.855C189.876 341.083 190.036 340.427 190.354 339.886C190.682 339.336 191.121 338.916 191.672 338.626C192.231 338.327 192.854 338.178 193.539 338.178C194.225 338.178 194.808 338.303 195.291 338.554C195.774 338.805 196.16 339.138 196.449 339.553C196.749 339.968 196.942 340.427 197.028 340.928L195.581 341.233C195.532 340.914 195.431 340.624 195.277 340.364C195.122 340.103 194.905 339.896 194.625 339.741C194.345 339.587 193.993 339.51 193.568 339.51C193.153 339.51 192.777 339.606 192.439 339.799C192.111 339.983 191.85 340.253 191.657 340.61C191.464 340.957 191.368 341.382 191.368 341.884V342.014C191.368 342.516 191.464 342.946 191.657 343.303C191.85 343.66 192.111 343.93 192.439 344.114C192.777 344.297 193.153 344.389 193.568 344.389C194.196 344.389 194.673 344.23 195.002 343.911C195.33 343.583 195.537 343.168 195.624 342.666L197.072 342.999C196.956 343.491 196.749 343.945 196.449 344.36C196.16 344.775 195.774 345.108 195.291 345.359C194.808 345.6 194.225 345.721 193.539 345.721ZM202.064 345.721C201.34 345.721 200.708 345.571 200.167 345.272C199.627 344.963 199.202 344.534 198.893 343.983C198.594 343.424 198.444 342.777 198.444 342.043V341.87C198.444 341.126 198.594 340.48 198.893 339.93C199.192 339.37 199.607 338.94 200.138 338.641C200.679 338.332 201.301 338.178 202.006 338.178C202.691 338.178 203.29 338.332 203.801 338.641C204.323 338.94 204.728 339.36 205.017 339.901C205.307 340.441 205.452 341.073 205.452 341.797V342.362H199.965C199.984 342.989 200.191 343.491 200.587 343.868C200.993 344.234 201.494 344.418 202.093 344.418C202.653 344.418 203.073 344.292 203.352 344.041C203.642 343.79 203.864 343.501 204.018 343.173L205.249 343.81C205.114 344.08 204.916 344.365 204.656 344.664C204.405 344.963 204.072 345.214 203.657 345.417C203.241 345.619 202.711 345.721 202.064 345.721ZM199.979 341.218H203.932C203.893 340.678 203.7 340.258 203.352 339.958C203.005 339.65 202.551 339.495 201.992 339.495C201.432 339.495 200.973 339.65 200.616 339.958C200.269 340.258 200.056 340.678 199.979 341.218ZM210.894 345.518V335.383H213.833L216.048 344.476H216.28L218.495 335.383H221.434V345.518H219.914V336.484H219.682L217.481 345.518H214.846L212.646 336.484H212.414V345.518H210.894ZM226.863 345.721C226.14 345.721 225.507 345.571 224.967 345.272C224.426 344.963 224.002 344.534 223.693 343.983C223.393 343.424 223.244 342.777 223.244 342.043V341.87C223.244 341.126 223.393 340.48 223.693 339.93C223.992 339.37 224.407 338.94 224.938 338.641C225.478 338.332 226.101 338.178 226.805 338.178C227.491 338.178 228.089 338.332 228.601 338.641C229.122 338.94 229.527 339.36 229.817 339.901C230.107 340.441 230.251 341.073 230.251 341.797V342.362H224.764C224.783 342.989 224.991 343.491 225.387 343.868C225.792 344.234 226.294 344.418 226.892 344.418C227.452 344.418 227.872 344.292 228.152 344.041C228.442 343.79 228.664 343.501 228.818 343.173L230.049 343.81C229.913 344.08 229.716 344.365 229.455 344.664C229.204 344.963 228.871 345.214 228.456 345.417C228.041 345.619 227.51 345.721 226.863 345.721ZM224.779 341.218H228.731C228.692 340.678 228.499 340.258 228.152 339.958C227.804 339.65 227.351 339.495 226.791 339.495C226.231 339.495 225.773 339.65 225.416 339.958C225.068 340.258 224.856 340.678 224.779 341.218ZM234.47 345.518C234.036 345.518 233.689 345.388 233.428 345.127C233.177 344.867 233.051 344.519 233.051 344.085V339.64H231.082V338.38H233.051V336.02H234.543V338.38H236.671V339.64H234.543V343.824C234.543 344.114 234.678 344.258 234.948 344.258H236.439V345.518H234.47ZM238.423 345.518V338.38H239.885V339.22H240.117C240.233 338.921 240.416 338.704 240.667 338.569C240.928 338.424 241.246 338.351 241.623 338.351H242.477V339.698H241.565C241.082 339.698 240.686 339.833 240.378 340.103C240.069 340.364 239.914 340.769 239.914 341.319V345.518H238.423ZM244.022 345.518V338.38H245.513V345.518H244.022ZM244.775 337.41C244.485 337.41 244.239 337.319 244.036 337.135C243.843 336.942 243.747 336.696 243.747 336.397C243.747 336.098 243.843 335.856 244.036 335.673C244.239 335.48 244.485 335.383 244.775 335.383C245.074 335.383 245.32 335.48 245.513 335.673C245.706 335.856 245.803 336.098 245.803 336.397C245.803 336.696 245.706 336.942 245.513 337.135C245.32 337.319 245.074 337.41 244.775 337.41ZM251.042 345.721C250.357 345.721 249.734 345.576 249.174 345.286C248.624 344.997 248.185 344.577 247.857 344.027C247.538 343.477 247.379 342.815 247.379 342.043V341.855C247.379 341.083 247.538 340.427 247.857 339.886C248.185 339.336 248.624 338.916 249.174 338.626C249.734 338.327 250.357 338.178 251.042 338.178C251.727 338.178 252.311 338.303 252.794 338.554C253.276 338.805 253.662 339.138 253.952 339.553C254.251 339.968 254.444 340.427 254.531 340.928L253.083 341.233C253.035 340.914 252.934 340.624 252.779 340.364C252.625 340.103 252.408 339.896 252.128 339.741C251.848 339.587 251.495 339.51 251.071 339.51C250.656 339.51 250.279 339.606 249.941 339.799C249.613 339.983 249.353 340.253 249.16 340.61C248.967 340.957 248.87 341.382 248.87 341.884V342.014C248.87 342.516 248.967 342.946 249.16 343.303C249.353 343.66 249.613 343.93 249.941 344.114C250.279 344.297 250.656 344.389 251.071 344.389C251.698 344.389 252.176 344.23 252.504 343.911C252.832 343.583 253.04 343.168 253.127 342.666L254.574 342.999C254.459 343.491 254.251 343.945 253.952 344.36C253.662 344.775 253.276 345.108 252.794 345.359C252.311 345.6 251.727 345.721 251.042 345.721ZM259.219 345.721C258.312 345.721 257.559 345.518 256.96 345.113C256.362 344.707 255.995 344.094 255.86 343.274L257.25 342.941C257.327 343.337 257.458 343.65 257.641 343.882C257.824 344.114 258.051 344.278 258.321 344.374C258.601 344.471 258.9 344.519 259.219 344.519C259.692 344.519 260.054 344.427 260.305 344.244C260.565 344.061 260.696 343.824 260.696 343.535C260.696 343.245 260.575 343.033 260.334 342.898C260.093 342.762 259.735 342.651 259.262 342.565L258.77 342.478C258.288 342.391 257.848 342.265 257.453 342.101C257.057 341.937 256.743 341.71 256.512 341.421C256.28 341.131 256.164 340.76 256.164 340.306C256.164 339.63 256.415 339.109 256.917 338.742C257.419 338.366 258.085 338.178 258.915 338.178C259.716 338.178 260.372 338.361 260.884 338.728C261.405 339.085 261.743 339.572 261.897 340.19L260.508 340.581C260.421 340.147 260.237 339.843 259.957 339.669C259.677 339.486 259.33 339.394 258.915 339.394C258.51 339.394 258.191 339.471 257.959 339.625C257.728 339.77 257.612 339.978 257.612 340.248C257.612 340.538 257.723 340.75 257.945 340.885C258.177 341.02 258.485 341.122 258.872 341.189L259.378 341.276C259.89 341.363 260.358 341.483 260.783 341.638C261.207 341.792 261.54 342.014 261.782 342.304C262.033 342.593 262.158 342.98 262.158 343.462C262.158 344.176 261.893 344.731 261.362 345.127C260.831 345.523 260.117 345.721 259.219 345.721Z" fill="black"/>
</g>
<g filter="url(#filter3_d_67_73)">
<rect width="223.753" height="53.964" transform="translate(380 220.464)" fill="white"/>
<rect x="387.239" y="227.703" width="39.4859" height="39.4859" rx="19.7429" fill="#F9EFE4"/>
<g clip-path="url(#clip2_67_73)">
<path d="M414.268 237.891C414.823 237.891 415.355 238.111 415.747 238.504C416.139 238.896 416.359 239.428 416.359 239.982V254.621C416.359 255.176 416.139 255.708 415.747 256.1C415.355 256.492 414.823 256.713 414.268 256.713H399.629C399.075 256.713 398.543 256.492 398.15 256.1C397.758 255.708 397.538 255.176 397.538 254.621V239.982C397.538 239.428 397.758 238.896 398.15 238.504C398.543 238.111 399.075 237.891 399.629 237.891H414.268ZM414.268 239.982H399.629V254.621H414.268V239.982ZM406.987 242.836C407.271 241.928 408.493 241.843 408.922 242.644L408.976 242.759L410.794 247.302H412.177C412.443 247.302 412.7 247.404 412.894 247.587C413.087 247.77 413.204 248.02 413.22 248.286C413.235 248.552 413.149 248.814 412.978 249.019C412.807 249.223 412.564 249.354 412.299 249.386L412.177 249.393H410.093C409.904 249.393 409.718 249.343 409.555 249.246C409.392 249.15 409.258 249.011 409.166 248.845L409.112 248.73L408.116 246.237L406.386 251.772C406.115 252.638 404.969 252.769 404.497 252.039L404.434 251.929L403.164 249.393H401.72C401.454 249.393 401.198 249.291 401.004 249.108C400.81 248.925 400.693 248.675 400.678 248.409C400.662 248.143 400.749 247.881 400.92 247.676C401.091 247.472 401.333 247.341 401.598 247.309L401.72 247.302H403.805C404.161 247.302 404.489 247.48 404.684 247.771L404.75 247.886L405.155 248.698L406.987 242.836Z" fill="#DCA15D"/>
</g>
<path d="M436.337 243.446V233.311H440.362C440.98 233.311 441.53 233.437 442.013 233.688C442.505 233.929 442.886 234.276 443.156 234.73C443.436 235.174 443.576 235.71 443.576 236.337V236.525C443.576 237.153 443.431 237.693 443.142 238.147C442.862 238.6 442.481 238.948 441.998 239.189C441.515 239.431 440.97 239.551 440.362 239.551H437.901V243.446H436.337ZM437.901 238.132H440.203C440.753 238.132 441.192 237.988 441.52 237.698C441.848 237.408 442.013 237.013 442.013 236.511V236.366C442.013 235.854 441.848 235.454 441.52 235.164C441.192 234.875 440.753 234.73 440.203 234.73H437.901V238.132ZM448.178 243.648C447.454 243.648 446.822 243.499 446.282 243.2C445.741 242.891 445.316 242.461 445.008 241.911C444.708 241.351 444.559 240.705 444.559 239.971V239.797C444.559 239.054 444.708 238.407 445.008 237.857C445.307 237.297 445.722 236.868 446.253 236.569C446.793 236.26 447.416 236.105 448.12 236.105C448.806 236.105 449.404 236.26 449.916 236.569C450.437 236.868 450.842 237.288 451.132 237.828C451.421 238.369 451.566 239.001 451.566 239.725V240.29H446.079C446.098 240.917 446.306 241.419 446.702 241.795C447.107 242.162 447.609 242.345 448.207 242.345C448.767 242.345 449.187 242.22 449.467 241.969C449.756 241.718 449.978 241.429 450.133 241.1L451.364 241.737C451.228 242.008 451.031 242.292 450.77 242.592C450.519 242.891 450.186 243.142 449.771 243.344C449.356 243.547 448.825 243.648 448.178 243.648ZM446.093 239.146H450.046C450.007 238.605 449.814 238.185 449.467 237.886C449.119 237.577 448.666 237.423 448.106 237.423C447.546 237.423 447.088 237.577 446.731 237.886C446.383 238.185 446.171 238.605 446.093 239.146ZM453.361 243.446V236.308H454.824V237.148H455.055C455.171 236.849 455.354 236.631 455.605 236.496C455.866 236.352 456.185 236.279 456.561 236.279H457.415V237.626H456.503C456.02 237.626 455.625 237.761 455.316 238.031C455.007 238.292 454.853 238.697 454.853 239.247V243.446H453.361ZM460.249 243.446V237.568H458.251V236.308H460.249V234.744C460.249 234.31 460.379 233.963 460.64 233.702C460.9 233.441 461.248 233.311 461.682 233.311H463.521V234.571H462.16C461.88 234.571 461.74 234.715 461.74 235.005V236.308H463.796V237.568H461.74V243.446H460.249ZM468.384 243.648C467.67 243.648 467.033 243.504 466.473 243.214C465.923 242.915 465.489 242.49 465.17 241.94C464.852 241.39 464.692 240.738 464.692 239.986V239.768C464.692 239.015 464.852 238.369 465.17 237.828C465.489 237.278 465.923 236.853 466.473 236.554C467.033 236.255 467.67 236.105 468.384 236.105C469.099 236.105 469.736 236.255 470.296 236.554C470.855 236.853 471.294 237.278 471.613 237.828C471.932 238.369 472.091 239.015 472.091 239.768V239.986C472.091 240.738 471.932 241.39 471.613 241.94C471.294 242.49 470.855 242.915 470.296 243.214C469.736 243.504 469.099 243.648 468.384 243.648ZM468.384 242.317C469.041 242.317 469.572 242.109 469.977 241.694C470.392 241.269 470.6 240.685 470.6 239.942V239.812C470.6 239.069 470.397 238.489 469.991 238.074C469.586 237.65 469.05 237.437 468.384 237.437C467.738 237.437 467.207 237.65 466.792 238.074C466.386 238.489 466.184 239.069 466.184 239.812V239.942C466.184 240.685 466.386 241.269 466.792 241.694C467.207 242.109 467.738 242.317 468.384 242.317ZM473.947 243.446V236.308H475.41V237.148H475.641C475.757 236.849 475.941 236.631 476.192 236.496C476.452 236.352 476.771 236.279 477.147 236.279H478.001V237.626H477.089C476.607 237.626 476.211 237.761 475.902 238.031C475.593 238.292 475.439 238.697 475.439 239.247V243.446H473.947ZM479.546 243.446V236.308H481.009V237.148H481.24C481.375 236.897 481.593 236.675 481.892 236.482C482.191 236.289 482.596 236.192 483.108 236.192C483.639 236.192 484.064 236.303 484.382 236.525C484.71 236.738 484.956 237.013 485.12 237.35H485.352C485.516 237.022 485.753 236.747 486.062 236.525C486.38 236.303 486.829 236.192 487.408 236.192C487.871 236.192 488.282 236.289 488.639 236.482C488.996 236.665 489.281 236.945 489.493 237.322C489.705 237.688 489.811 238.147 489.811 238.697V243.446H488.32V238.813C488.32 238.378 488.199 238.045 487.958 237.814C487.727 237.572 487.394 237.452 486.959 237.452C486.496 237.452 486.124 237.601 485.844 237.901C485.564 238.2 485.424 238.629 485.424 239.189V243.446H483.933V238.813C483.933 238.378 483.813 238.045 483.571 237.814C483.34 237.572 483.007 237.452 482.572 237.452C482.109 237.452 481.737 237.601 481.457 237.901C481.178 238.2 481.038 238.629 481.038 239.189V243.446H479.546ZM494.67 243.446L497.566 233.311H500.317L503.198 243.446H501.591L500.925 241.057H496.958L496.292 243.446H494.67ZM497.349 239.609H500.534L499.057 234.281H498.826L497.349 239.609ZM507.568 243.648C506.979 243.648 506.434 243.504 505.932 243.214C505.43 242.925 505.025 242.51 504.716 241.969C504.417 241.419 504.267 240.758 504.267 239.986V239.768C504.267 239.006 504.417 238.349 504.716 237.799C505.015 237.249 505.416 236.829 505.918 236.54C506.419 236.25 506.97 236.105 507.568 236.105C508.031 236.105 508.417 236.163 508.726 236.279C509.045 236.395 509.305 236.545 509.508 236.728C509.711 236.902 509.865 237.085 509.971 237.278H510.203V233.311H511.694V243.446H510.232V242.432H510C509.817 242.741 509.537 243.021 509.161 243.272C508.794 243.523 508.263 243.648 507.568 243.648ZM507.988 242.345C508.635 242.345 509.165 242.138 509.58 241.723C510.005 241.308 510.218 240.714 510.218 239.942V239.812C510.218 239.049 510.01 238.46 509.595 238.045C509.18 237.63 508.644 237.423 507.988 237.423C507.351 237.423 506.82 237.63 506.395 238.045C505.98 238.46 505.773 239.049 505.773 239.812V239.942C505.773 240.714 505.98 241.308 506.395 241.723C506.82 242.138 507.351 242.345 507.988 242.345ZM515.54 243.446L513.137 236.308H514.715L516.611 242.345H516.843L518.74 236.308H520.318L517.914 243.446H515.54ZM523.782 243.648C523.271 243.648 522.812 243.562 522.407 243.388C522.011 243.214 521.692 242.958 521.451 242.621C521.219 242.283 521.104 241.873 521.104 241.39C521.104 240.898 521.219 240.492 521.451 240.174C521.692 239.846 522.016 239.599 522.421 239.435C522.836 239.271 523.304 239.189 523.826 239.189H525.997V238.726C525.997 238.311 525.872 237.978 525.621 237.727C525.37 237.476 524.984 237.35 524.463 237.35C523.951 237.35 523.56 237.471 523.29 237.712C523.02 237.954 522.841 238.267 522.754 238.654L521.364 238.205C521.48 237.819 521.663 237.471 521.914 237.162C522.175 236.844 522.518 236.588 522.942 236.395C523.367 236.202 523.879 236.105 524.477 236.105C525.404 236.105 526.132 236.342 526.663 236.815C527.194 237.288 527.46 237.959 527.46 238.827V241.766C527.46 242.056 527.595 242.201 527.865 242.201H528.473V243.446H527.358C527.02 243.446 526.745 243.359 526.533 243.185C526.321 243.011 526.214 242.775 526.214 242.476V242.432H525.997C525.92 242.577 525.804 242.746 525.65 242.939C525.495 243.132 525.269 243.301 524.969 243.446C524.67 243.581 524.274 243.648 523.782 243.648ZM523.999 242.418C524.598 242.418 525.08 242.249 525.447 241.911C525.814 241.564 525.997 241.091 525.997 240.492V240.347H523.912C523.517 240.347 523.198 240.434 522.957 240.608C522.716 240.772 522.595 241.018 522.595 241.346C522.595 241.675 522.72 241.935 522.971 242.128C523.222 242.321 523.565 242.418 523.999 242.418ZM529.923 243.446V236.308H531.385V237.379H531.617C531.752 237.09 531.993 236.82 532.341 236.569C532.688 236.318 533.205 236.192 533.89 236.192C534.431 236.192 534.908 236.313 535.323 236.554C535.748 236.796 536.081 237.138 536.322 237.582C536.564 238.016 536.684 238.543 536.684 239.16V243.446H535.193V239.276C535.193 238.658 535.039 238.205 534.73 237.915C534.421 237.616 533.996 237.466 533.456 237.466C532.838 237.466 532.341 237.669 531.964 238.074C531.598 238.48 531.414 239.069 531.414 239.841V243.446H529.923ZM542.146 243.648C541.461 243.648 540.838 243.504 540.278 243.214C539.728 242.925 539.289 242.505 538.961 241.955C538.642 241.404 538.483 240.743 538.483 239.971V239.783C538.483 239.011 538.642 238.354 538.961 237.814C539.289 237.264 539.728 236.844 540.278 236.554C540.838 236.255 541.461 236.105 542.146 236.105C542.831 236.105 543.415 236.231 543.898 236.482C544.38 236.733 544.766 237.066 545.056 237.481C545.355 237.896 545.548 238.354 545.635 238.856L544.187 239.16C544.139 238.842 544.038 238.552 543.883 238.292C543.729 238.031 543.512 237.823 543.232 237.669C542.952 237.515 542.6 237.437 542.175 237.437C541.76 237.437 541.383 237.534 541.046 237.727C540.717 237.91 540.457 238.181 540.264 238.538C540.071 238.885 539.974 239.31 539.974 239.812V239.942C539.974 240.444 540.071 240.874 540.264 241.231C540.457 241.588 540.717 241.858 541.046 242.041C541.383 242.225 541.76 242.317 542.175 242.317C542.802 242.317 543.28 242.157 543.608 241.839C543.936 241.511 544.144 241.096 544.231 240.594L545.679 240.927C545.563 241.419 545.355 241.873 545.056 242.288C544.766 242.703 544.38 243.036 543.898 243.287C543.415 243.528 542.831 243.648 542.146 243.648ZM550.671 243.648C549.947 243.648 549.314 243.499 548.774 243.2C548.233 242.891 547.809 242.461 547.5 241.911C547.201 241.351 547.051 240.705 547.051 239.971V239.797C547.051 239.054 547.201 238.407 547.5 237.857C547.799 237.297 548.214 236.868 548.745 236.569C549.286 236.26 549.908 236.105 550.613 236.105C551.298 236.105 551.896 236.26 552.408 236.569C552.929 236.868 553.335 237.288 553.624 237.828C553.914 238.369 554.058 239.001 554.058 239.725V240.29H548.571C548.591 240.917 548.798 241.419 549.194 241.795C549.599 242.162 550.101 242.345 550.7 242.345C551.259 242.345 551.679 242.22 551.959 241.969C552.249 241.718 552.471 241.429 552.625 241.1L553.856 241.737C553.721 242.008 553.523 242.292 553.262 242.592C553.011 242.891 552.678 243.142 552.263 243.344C551.848 243.547 551.317 243.648 550.671 243.648ZM548.586 239.146H552.538C552.5 238.605 552.307 238.185 551.959 237.886C551.612 237.577 551.158 237.423 550.598 237.423C550.038 237.423 549.58 237.577 549.223 237.886C548.875 238.185 548.663 238.605 548.586 239.146ZM558.807 243.648C558.218 243.648 557.673 243.504 557.171 243.214C556.669 242.925 556.264 242.51 555.955 241.969C555.656 241.419 555.506 240.758 555.506 239.986V239.768C555.506 239.006 555.656 238.349 555.955 237.799C556.254 237.249 556.655 236.829 557.157 236.54C557.659 236.25 558.209 236.105 558.807 236.105C559.27 236.105 559.656 236.163 559.965 236.279C560.284 236.395 560.544 236.545 560.747 236.728C560.95 236.902 561.104 237.085 561.21 237.278H561.442V233.311H562.933V243.446H561.471V242.432H561.239C561.056 242.741 560.776 243.021 560.4 243.272C560.033 243.523 559.502 243.648 558.807 243.648ZM559.227 242.345C559.874 242.345 560.405 242.138 560.82 241.723C561.244 241.308 561.457 240.714 561.457 239.942V239.812C561.457 239.049 561.249 238.46 560.834 238.045C560.419 237.63 559.883 237.423 559.227 237.423C558.59 237.423 558.059 237.63 557.634 238.045C557.219 238.46 557.012 239.049 557.012 239.812V239.942C557.012 240.714 557.219 241.308 557.634 241.723C558.059 242.138 558.59 242.345 559.227 242.345ZM436.337 261.446V251.311H442.592V252.73H437.901V255.655H442.215V257.073H437.901V261.446H436.337ZM447.431 261.648C446.716 261.648 446.079 261.504 445.52 261.214C444.969 260.915 444.535 260.49 444.217 259.94C443.898 259.39 443.739 258.738 443.739 257.986V257.768C443.739 257.015 443.898 256.369 444.217 255.828C444.535 255.278 444.969 254.853 445.52 254.554C446.079 254.255 446.716 254.105 447.431 254.105C448.145 254.105 448.782 254.255 449.342 254.554C449.902 254.853 450.341 255.278 450.659 255.828C450.978 256.369 451.137 257.015 451.137 257.768V257.986C451.137 258.738 450.978 259.39 450.659 259.94C450.341 260.49 449.902 260.915 449.342 261.214C448.782 261.504 448.145 261.648 447.431 261.648ZM447.431 260.317C448.087 260.317 448.618 260.109 449.023 259.694C449.438 259.269 449.646 258.685 449.646 257.942V257.812C449.646 257.069 449.443 256.489 449.038 256.074C448.632 255.65 448.097 255.437 447.431 255.437C446.784 255.437 446.253 255.65 445.838 256.074C445.433 256.489 445.23 257.069 445.23 257.812V257.942C445.23 258.685 445.433 259.269 445.838 259.694C446.253 260.109 446.784 260.317 447.431 260.317ZM452.994 261.446V254.308H454.456V255.148H454.688C454.803 254.849 454.987 254.631 455.238 254.496C455.498 254.352 455.817 254.279 456.193 254.279H457.048V255.626H456.135C455.653 255.626 455.257 255.761 454.948 256.031C454.639 256.292 454.485 256.697 454.485 257.247V261.446H452.994ZM461.61 261.648C460.886 261.648 460.254 261.499 459.714 261.2C459.173 260.891 458.748 260.461 458.439 259.911C458.14 259.351 457.991 258.705 457.991 257.971V257.797C457.991 257.054 458.14 256.407 458.439 255.857C458.739 255.297 459.154 254.868 459.685 254.569C460.225 254.26 460.848 254.105 461.552 254.105C462.238 254.105 462.836 254.26 463.348 254.569C463.869 254.868 464.274 255.288 464.564 255.828C464.853 256.369 464.998 257.001 464.998 257.725V258.29H459.511C459.53 258.917 459.738 259.419 460.133 259.795C460.539 260.162 461.041 260.345 461.639 260.345C462.199 260.345 462.619 260.22 462.899 259.969C463.188 259.718 463.41 259.429 463.565 259.1L464.795 259.737C464.66 260.008 464.462 260.292 464.202 260.592C463.951 260.891 463.618 261.142 463.203 261.344C462.788 261.547 462.257 261.648 461.61 261.648ZM459.525 257.146H463.478C463.439 256.605 463.246 256.185 462.899 255.886C462.551 255.577 462.098 255.423 461.538 255.423C460.978 255.423 460.52 255.577 460.162 255.886C459.815 256.185 459.603 256.605 459.525 257.146ZM470.109 261.648C469.423 261.648 468.801 261.504 468.241 261.214C467.691 260.925 467.252 260.505 466.923 259.955C466.605 259.404 466.446 258.743 466.446 257.971V257.783C466.446 257.011 466.605 256.354 466.923 255.814C467.252 255.264 467.691 254.844 468.241 254.554C468.801 254.255 469.423 254.105 470.109 254.105C470.794 254.105 471.378 254.231 471.861 254.482C472.343 254.733 472.729 255.066 473.019 255.481C473.318 255.896 473.511 256.354 473.598 256.856L472.15 257.16C472.102 256.842 472 256.552 471.846 256.292C471.692 256.031 471.474 255.823 471.195 255.669C470.915 255.515 470.562 255.437 470.138 255.437C469.723 255.437 469.346 255.534 469.008 255.727C468.68 255.91 468.42 256.181 468.226 256.538C468.033 256.885 467.937 257.31 467.937 257.812V257.942C467.937 258.444 468.033 258.874 468.226 259.231C468.42 259.588 468.68 259.858 469.008 260.041C469.346 260.225 469.723 260.317 470.138 260.317C470.765 260.317 471.243 260.157 471.571 259.839C471.899 259.511 472.107 259.096 472.193 258.594L473.641 258.927C473.525 259.419 473.318 259.873 473.019 260.288C472.729 260.703 472.343 261.036 471.861 261.287C471.378 261.528 470.794 261.648 470.109 261.648ZM477.576 261.648C477.065 261.648 476.606 261.562 476.201 261.388C475.805 261.214 475.487 260.958 475.245 260.621C475.014 260.283 474.898 259.873 474.898 259.39C474.898 258.898 475.014 258.492 475.245 258.174C475.487 257.846 475.81 257.599 476.215 257.435C476.631 257.271 477.099 257.189 477.62 257.189H479.792V256.726C479.792 256.311 479.666 255.978 479.415 255.727C479.164 255.476 478.778 255.35 478.257 255.35C477.745 255.35 477.354 255.471 477.084 255.712C476.814 255.954 476.635 256.267 476.548 256.654L475.159 256.205C475.274 255.819 475.458 255.471 475.709 255.162C475.969 254.844 476.312 254.588 476.737 254.395C477.161 254.202 477.673 254.105 478.271 254.105C479.198 254.105 479.927 254.342 480.458 254.815C480.988 255.288 481.254 255.959 481.254 256.827V259.766C481.254 260.056 481.389 260.201 481.659 260.201H482.267V261.446H481.153C480.815 261.446 480.54 261.359 480.327 261.185C480.115 261.011 480.009 260.775 480.009 260.476V260.432H479.792C479.714 260.577 479.599 260.746 479.444 260.939C479.29 261.132 479.063 261.301 478.764 261.446C478.464 261.581 478.069 261.648 477.576 261.648ZM477.794 260.418C478.392 260.418 478.875 260.249 479.241 259.911C479.608 259.564 479.792 259.091 479.792 258.492V258.347H477.707C477.311 258.347 476.992 258.434 476.751 258.608C476.51 258.772 476.389 259.018 476.389 259.346C476.389 259.675 476.515 259.935 476.766 260.128C477.017 260.321 477.359 260.418 477.794 260.418ZM486.585 261.648C485.678 261.648 484.925 261.446 484.327 261.04C483.728 260.635 483.362 260.022 483.226 259.202L484.616 258.869C484.694 259.264 484.824 259.578 485.007 259.81C485.191 260.041 485.417 260.206 485.688 260.302C485.968 260.399 486.267 260.447 486.585 260.447C487.058 260.447 487.42 260.355 487.671 260.172C487.932 259.988 488.062 259.752 488.062 259.462C488.062 259.173 487.941 258.96 487.7 258.825C487.459 258.69 487.102 258.579 486.629 258.492L486.137 258.405C485.654 258.319 485.215 258.193 484.819 258.029C484.423 257.865 484.11 257.638 483.878 257.348C483.646 257.059 483.53 256.687 483.53 256.234C483.53 255.558 483.781 255.037 484.283 254.67C484.785 254.294 485.451 254.105 486.281 254.105C487.082 254.105 487.739 254.289 488.25 254.656C488.772 255.013 489.109 255.5 489.264 256.118L487.874 256.509C487.787 256.074 487.604 255.77 487.324 255.597C487.044 255.413 486.696 255.322 486.281 255.322C485.876 255.322 485.557 255.399 485.326 255.553C485.094 255.698 484.978 255.905 484.978 256.176C484.978 256.465 485.089 256.678 485.311 256.813C485.543 256.948 485.852 257.049 486.238 257.117L486.745 257.204C487.256 257.291 487.724 257.411 488.149 257.566C488.574 257.72 488.907 257.942 489.148 258.232C489.399 258.521 489.524 258.907 489.524 259.39C489.524 260.104 489.259 260.659 488.728 261.055C488.197 261.451 487.483 261.648 486.585 261.648ZM493.79 261.446C493.356 261.446 493.009 261.315 492.748 261.055C492.497 260.794 492.372 260.447 492.372 260.012V255.568H490.402V254.308H492.372V251.948H493.863V254.308H495.991V255.568H493.863V259.752C493.863 260.041 493.998 260.186 494.268 260.186H495.759V261.446H493.79ZM497.743 261.446V254.308H499.234V261.446H497.743ZM498.496 253.338C498.206 253.338 497.96 253.246 497.757 253.063C497.564 252.87 497.468 252.624 497.468 252.325C497.468 252.025 497.564 251.784 497.757 251.601C497.96 251.408 498.206 251.311 498.496 251.311C498.795 251.311 499.041 251.408 499.234 251.601C499.427 251.784 499.524 252.025 499.524 252.325C499.524 252.624 499.427 252.87 499.234 253.063C499.041 253.246 498.795 253.338 498.496 253.338ZM501.447 261.446V254.308H502.91V255.379H503.141C503.276 255.09 503.518 254.82 503.865 254.569C504.213 254.318 504.729 254.192 505.414 254.192C505.955 254.192 506.433 254.313 506.848 254.554C507.272 254.796 507.605 255.138 507.847 255.582C508.088 256.016 508.209 256.543 508.209 257.16V261.446H506.717V257.276C506.717 256.658 506.563 256.205 506.254 255.915C505.945 255.616 505.521 255.466 504.98 255.466C504.362 255.466 503.865 255.669 503.489 256.074C503.122 256.48 502.939 257.069 502.939 257.841V261.446H501.447ZM510.007 257.913V257.696C510.007 256.943 510.157 256.301 510.456 255.77C510.765 255.24 511.17 254.829 511.672 254.54C512.174 254.25 512.724 254.105 513.323 254.105C514.018 254.105 514.549 254.236 514.915 254.496C515.292 254.757 515.567 255.037 515.741 255.336H515.972V254.308H517.42V262.908C517.42 263.342 517.29 263.69 517.029 263.951C516.778 264.211 516.431 264.341 515.987 264.341H511.18V263.038H515.524C515.803 263.038 515.943 262.894 515.943 262.604V260.331H515.712C515.606 260.505 515.456 260.683 515.263 260.867C515.07 261.05 514.814 261.2 514.496 261.315C514.187 261.431 513.796 261.489 513.323 261.489C512.724 261.489 512.169 261.349 511.658 261.069C511.156 260.78 510.755 260.37 510.456 259.839C510.157 259.298 510.007 258.656 510.007 257.913ZM513.728 260.186C514.375 260.186 514.906 259.984 515.321 259.578C515.746 259.163 515.958 258.594 515.958 257.87V257.739C515.958 256.996 515.75 256.427 515.335 256.031C514.92 255.626 514.385 255.423 513.728 255.423C513.091 255.423 512.56 255.626 512.136 256.031C511.721 256.427 511.513 256.996 511.513 257.739V257.87C511.513 258.594 511.721 259.163 512.136 259.578C512.56 259.984 513.091 260.186 513.728 260.186Z" fill="black"/>
</g>
<defs>
<filter id="filter0_d_67_73" x="0" y="0.5" width="510" height="425" filterUnits="userSpaceOnUse" color-interpolation-filters="sRGB">
<feFlood flood-opacity="0" result="BackgroundImageFix"/>
<feColorMatrix in="SourceAlpha" type="matrix" values="0 0 0 0 0 0 0 0 0 0 0 0 0 0 0 0 0 0 127 0" result="hardAlpha"/>
<feOffset dy="5"/>
<feGaussianBlur stdDeviation="7.5"/>
<feComposite in2="hardAlpha" operator="out"/>
<feColorMatrix type="matrix" values="0 0 0 0 0 0 0 0 0 0 0 0 0 0 0 0 0 0 0.15 0"/>
<feBlend mode="normal" in2="BackgroundImageFix" result="effect1_dropShadow_67_73"/>
<feBlend mode="normal" in="SourceGraphic" in2="effect1_dropShadow_67_73" result="shape"/>
</filter>
<filter id="filter1_d_67_73" x="46" y="156.5" width="253.753" height="83.9639" filterUnits="userSpaceOnUse" color-interpolation-filters="sRGB">
<feFlood flood-opacity="0" result="BackgroundImageFix"/>
<feColorMatrix in="SourceAlpha" type="matrix" values="0 0 0 0 0 0 0 0 0 0 0 0 0 0 0 0 0 0 127 0" result="hardAlpha"/>
<feOffset dy="5"/>
<feGaussianBlur stdDeviation="7.5"/>
<feComposite in2="hardAlpha" operator="out"/>
<feColorMatrix type="matrix" values="0 0 0 0 0 0 0 0 0 0 0 0 0 0 0 0 0 0 0.15 0"/>
<feBlend mode="normal" in2="BackgroundImageFix" result="effect1_dropShadow_67_73"/>
<feBlend mode="normal" in="SourceGraphic" in2="effect1_dropShadow_67_73" result="shape"/>
</filter>
<filter id="filter2_d_67_73" x="46" y="294.536" width="253.753" height="83.9639" filterUnits="userSpaceOnUse" color-interpolation-filters="sRGB">
<feFlood flood-opacity="0" result="BackgroundImageFix"/>
<feColorMatrix in="SourceAlpha" type="matrix" values="0 0 0 0 0 0 0 0 0 0 0 0 0 0 0 0 0 0 127 0" result="hardAlpha"/>
<feOffset dy="5"/>
<feGaussianBlur stdDeviation="7.5"/>
<feComposite in2="hardAlpha" operator="out"/>
<feColorMatrix type="matrix" values="0 0 0 0 0 0 0 0 0 0 0 0 0 0 0 0 0 0 0.15 0"/>
<feBlend mode="normal" in2="BackgroundImageFix" result="effect1_dropShadow_67_73"/>
<feBlend mode="normal" in="SourceGraphic" in2="effect1_dropShadow_67_73" result="shape"/>
</filter>
<filter id="filter3_d_67_73" x="365" y="210.464" width="253.753" height="83.9639" filterUnits="userSpaceOnUse" color-interpolation-filters="sRGB">
<feFlood flood-opacity="0" result="BackgroundImageFix"/>
<feColorMatrix in="SourceAlpha" type="matrix" values="0 0 0 0 0 0 0 0 0 0 0 0 0 0 0 0 0 0 127 0" result="hardAlpha"/>
<feOffset dy="5"/>
<feGaussianBlur stdDeviation="7.5"/>
<feComposite in2="hardAlpha" operator="out"/>
<feColorMatrix type="matrix" values="0 0 0 0 0 0 0 0 0 0 0 0 0 0 0 0 0 0 0.15 0"/>
<feBlend mode="normal" in2="BackgroundImageFix" result="effect1_dropShadow_67_73"/>
<feBlend mode="normal" in="SourceGraphic" in2="effect1_dropShadow_67_73" result="shape"/>
</filter>
<clipPath id="clip0_67_73">
<rect width="20.5326" height="20.5326" fill="white" transform="translate(77.7156 183.216)"/>
</clipPath>
<clipPath id="clip1_67_73">
<rect width="20.5326" height="20.5326" fill="white" transform="translate(77.6828 321.107)"/>
</clipPath>
<clipPath id="clip2_67_73">
<rect width="20.5326" height="20.5326" fill="white" transform="translate(396.683 237.036)"/>
</clipPath>
</defs>
</svg>
