<svg width="500" height="400" viewBox="0 0 500 400" fill="none" xmlns="http://www.w3.org/2000/svg">
<rect width="500" height="400" rx="16" fill="#EED0AF"/>
<g filter="url(#filter0_d_67_172)">
<g filter="url(#filter1_d_67_172)">
<rect x="18" y="69" width="450" height="283" rx="14.6809" fill="white"/>
<path d="M65.08 105.576C65.2676 105.049 66.0124 105.049 66.2 105.576C66.9934 107.805 68.5188 111.682 70.0442 113.308C71.5736 114.937 75.0292 116.567 76.9979 117.41C77.4786 117.616 77.4786 118.385 76.9979 118.591C75.029 119.434 71.5736 121.064 70.0442 122.693C68.5188 124.318 66.9934 128.195 66.2 130.425C66.0124 130.952 65.2676 130.952 65.08 130.425C64.2865 128.195 62.7611 124.318 61.2357 122.693C59.7103 121.068 56.0716 119.443 53.9792 118.597C53.4845 118.397 53.4845 117.604 53.9792 117.404C56.0716 116.558 59.7103 114.933 61.2357 113.308C62.7611 111.682 64.2865 107.805 65.08 105.576Z" fill="black"/>
<path d="M76.0663 100.874C76.2693 100.353 77.0325 100.353 77.2356 100.874C77.6571 101.956 78.2552 103.285 78.853 103.922C79.4547 104.563 80.6526 105.204 81.6156 105.654C82.0902 105.876 82.0902 106.661 81.6156 106.883C80.6526 107.333 79.4547 107.974 78.853 108.615C78.2552 109.252 77.6571 110.581 77.2356 111.663C77.0325 112.183 76.2693 112.183 76.0663 111.663C75.6448 110.581 75.0467 109.252 74.4488 108.615C73.8507 107.978 72.6032 107.341 71.588 106.891C71.0996 106.675 71.0996 105.862 71.588 105.646C72.6032 105.196 73.8507 104.559 74.4488 103.922C75.0467 103.285 75.6448 101.956 76.0663 100.874Z" fill="black"/>
<path d="M54.7536 103.992C54.9751 103.48 55.7526 103.48 55.9741 103.992C56.2255 104.573 56.5287 105.163 56.8319 105.486C57.1392 105.814 57.6796 106.141 58.2042 106.411C58.6708 106.651 58.6708 107.45 58.2042 107.69C57.6796 107.96 57.1392 108.287 56.8319 108.615C56.5287 108.938 56.2255 109.528 55.9741 110.109C55.7526 110.621 54.9751 110.621 54.7536 110.109C54.5021 109.528 54.1989 108.938 53.8957 108.615C53.5925 108.292 53.0389 107.969 52.4934 107.701C52.0129 107.465 52.0129 106.636 52.4933 106.4C53.0388 106.132 53.5925 105.809 53.8957 105.486C54.1989 105.163 54.5021 104.573 54.7536 103.992Z" fill="black"/>
<rect x="98.9715" y="103.652" width="125.666" height="9" rx="4.5" fill="#DDA15E"/>
<rect x="98.9715" y="118.652" width="215.926" height="9" rx="4.5" fill="#F9EFE4"/>
<g filter="url(#filter2_d_67_172)">
<rect x="53.234" y="170.25" width="179.785" height="149.821" rx="4.08602" fill="white"/>
<path d="M71.5884 193.656C70.8711 193.656 70.2355 193.529 69.6816 193.274C69.1277 193.02 68.6918 192.648 68.374 192.158C68.0653 191.658 67.911 191.054 67.911 190.346V190.006H69.3683V190.346C69.3683 191.018 69.5681 191.522 69.9676 191.858C70.3762 192.194 70.9165 192.362 71.5884 192.362C72.2694 192.362 72.7824 192.221 73.1274 191.94C73.4725 191.649 73.645 191.277 73.645 190.823C73.645 190.523 73.5633 190.278 73.3998 190.087C73.2364 189.897 73.0049 189.747 72.7052 189.638C72.4056 189.52 72.0469 189.411 71.6292 189.311L71.1253 189.188C70.5169 189.043 69.9858 188.866 69.5317 188.657C69.0868 188.439 68.7418 188.153 68.4966 187.799C68.2515 187.445 68.1289 186.991 68.1289 186.437C68.1289 185.874 68.2651 185.393 68.5375 184.993C68.819 184.594 69.2049 184.285 69.6952 184.067C70.1855 183.849 70.7621 183.74 71.4249 183.74C72.0878 183.74 72.678 183.854 73.1955 184.081C73.7222 184.308 74.1353 184.644 74.435 185.089C74.7346 185.534 74.8844 186.092 74.8844 186.764V187.254H73.4271V186.764C73.4271 186.355 73.3408 186.024 73.1683 185.77C73.0049 185.516 72.7733 185.329 72.4737 185.211C72.174 185.093 71.8245 185.034 71.4249 185.034C70.8438 185.034 70.3898 185.157 70.0629 185.402C69.7451 185.638 69.5862 185.97 69.5862 186.396C69.5862 186.687 69.6543 186.927 69.7905 187.118C69.9358 187.3 70.1447 187.45 70.4171 187.568C70.6895 187.686 71.03 187.79 71.4386 187.881L71.9425 188.003C72.5599 188.14 73.1047 188.317 73.5769 188.535C74.0491 188.743 74.4213 189.029 74.6938 189.393C74.9662 189.756 75.1024 190.224 75.1024 190.796C75.1024 191.368 74.9571 191.867 74.6665 192.294C74.385 192.721 73.981 193.056 73.4543 193.302C72.9277 193.538 72.3057 193.656 71.5884 193.656ZM78.4308 193.656C77.9495 193.656 77.5182 193.574 77.1368 193.411C76.7646 193.247 76.4649 193.007 76.2379 192.689C76.02 192.371 75.911 191.985 75.911 191.531C75.911 191.068 76.02 190.687 76.2379 190.387C76.4649 190.078 76.7691 189.847 77.1505 189.692C77.5409 189.538 77.9813 189.461 78.4716 189.461H80.5146V189.025C80.5146 188.635 80.3966 188.321 80.1605 188.085C79.9244 187.849 79.5612 187.731 79.0709 187.731C78.5897 187.731 78.2219 187.845 77.9677 188.072C77.7134 188.299 77.5455 188.594 77.4637 188.957L76.1562 188.535C76.2652 188.171 76.4377 187.845 76.6738 187.554C76.9189 187.254 77.2413 187.014 77.6408 186.832C78.0403 186.651 78.5216 186.56 79.0845 186.56C79.9562 186.56 80.6417 186.782 81.1411 187.227C81.6405 187.672 81.8902 188.303 81.8902 189.12V191.885C81.8902 192.158 82.0174 192.294 82.2716 192.294H82.8437V193.465H81.7949C81.4771 193.465 81.2183 193.383 81.0186 193.22C80.8188 193.056 80.7189 192.834 80.7189 192.553V192.512H80.5146C80.442 192.648 80.333 192.807 80.1877 192.988C80.0425 193.17 79.8291 193.329 79.5476 193.465C79.2661 193.592 78.8938 193.656 78.4308 193.656ZM78.6351 192.498C79.198 192.498 79.652 192.339 79.9971 192.021C80.3421 191.694 80.5146 191.25 80.5146 190.687V190.55H78.5533C78.1811 190.55 77.8814 190.632 77.6544 190.796C77.4274 190.95 77.3139 191.181 77.3139 191.49C77.3139 191.799 77.4319 192.044 77.668 192.226C77.9041 192.407 78.2265 192.498 78.6351 192.498ZM83.8672 193.465V183.931H85.27V193.465H83.8672ZM90.0896 193.656C89.4086 193.656 88.8139 193.515 88.3054 193.234C87.7969 192.943 87.3974 192.539 87.1068 192.021C86.8254 191.495 86.6846 190.886 86.6846 190.196V190.033C86.6846 189.334 86.8254 188.725 87.1068 188.208C87.3883 187.681 87.7788 187.277 88.2782 186.996C88.7866 186.705 89.3723 186.56 90.0351 186.56C90.6798 186.56 91.2428 186.705 91.724 186.996C92.2144 187.277 92.5957 187.672 92.8681 188.181C93.1405 188.689 93.2767 189.284 93.2767 189.965V190.496H88.1147C88.1329 191.086 88.3281 191.558 88.7004 191.912C89.0817 192.257 89.5539 192.43 90.1169 192.43C90.6435 192.43 91.0385 192.312 91.3018 192.076C91.5742 191.84 91.7831 191.567 91.9283 191.259L93.086 191.858C92.9589 192.112 92.7728 192.38 92.5276 192.662C92.2915 192.943 91.9783 193.179 91.5878 193.37C91.1974 193.56 90.698 193.656 90.0896 193.656ZM88.1283 189.42H91.8466C91.8103 188.911 91.6287 188.516 91.3018 188.235C90.9749 187.944 90.5482 187.799 90.0215 187.799C89.4949 187.799 89.0636 187.944 88.7276 188.235C88.4007 188.516 88.201 188.911 88.1283 189.42ZM97.3761 193.656C96.5226 193.656 95.8144 193.465 95.2514 193.084C94.6885 192.702 94.3434 192.126 94.2163 191.354L95.5238 191.041C95.5965 191.413 95.719 191.708 95.8916 191.926C96.0641 192.144 96.2775 192.298 96.5317 192.389C96.795 192.48 97.0765 192.525 97.3761 192.525C97.8211 192.525 98.1616 192.439 98.3977 192.267C98.6428 192.094 98.7654 191.872 98.7654 191.599C98.7654 191.327 98.6519 191.127 98.4249 191C98.1979 190.873 97.8619 190.768 97.417 190.687L96.9539 190.605C96.4999 190.523 96.0868 190.405 95.7145 190.251C95.3422 190.096 95.0471 189.883 94.8292 189.611C94.6113 189.338 94.5023 188.989 94.5023 188.562C94.5023 187.926 94.7384 187.436 95.2106 187.091C95.6827 186.737 96.3092 186.56 97.0901 186.56C97.8438 186.56 98.4612 186.732 98.9425 187.077C99.4328 187.413 99.7506 187.872 99.8959 188.453L98.5883 188.821C98.5066 188.412 98.3341 188.126 98.0708 187.963C97.8074 187.79 97.4806 187.704 97.0901 187.704C96.7088 187.704 96.4091 187.776 96.1912 187.922C95.9733 188.058 95.8643 188.253 95.8643 188.507C95.8643 188.78 95.9687 188.98 96.1776 189.107C96.3955 189.234 96.6861 189.329 97.0493 189.393L97.526 189.474C98.0072 189.556 98.4476 189.67 98.8471 189.815C99.2466 189.96 99.5599 190.169 99.7869 190.441C100.023 190.714 100.141 191.077 100.141 191.531C100.141 192.203 99.8913 192.725 99.3919 193.097C98.8925 193.47 98.2206 193.656 97.3761 193.656ZM103.649 193.465L106.373 183.931H108.961L111.671 193.465H110.16L109.533 191.218H105.801L105.175 193.465H103.649ZM106.169 189.856H109.165L107.776 184.844H107.558L106.169 189.856ZM112.663 193.465V186.75H114.039V187.758H114.257C114.384 187.486 114.611 187.232 114.938 186.996C115.265 186.759 115.751 186.641 116.395 186.641C116.904 186.641 117.353 186.755 117.744 186.982C118.143 187.209 118.457 187.531 118.684 187.949C118.911 188.358 119.024 188.852 119.024 189.434V193.465H117.621V189.543C117.621 188.961 117.476 188.535 117.185 188.262C116.895 187.981 116.495 187.84 115.987 187.84C115.406 187.84 114.938 188.031 114.584 188.412C114.239 188.793 114.066 189.347 114.066 190.074V193.465H112.663ZM122.786 193.656C122.305 193.656 121.874 193.574 121.492 193.411C121.12 193.247 120.821 193.007 120.594 192.689C120.376 192.371 120.267 191.985 120.267 191.531C120.267 191.068 120.376 190.687 120.594 190.387C120.821 190.078 121.125 189.847 121.506 189.692C121.897 189.538 122.337 189.461 122.827 189.461H124.87V189.025C124.87 188.635 124.752 188.321 124.516 188.085C124.28 187.849 123.917 187.731 123.427 187.731C122.945 187.731 122.578 187.845 122.323 188.072C122.069 188.299 121.901 188.594 121.819 188.957L120.512 188.535C120.621 188.171 120.793 187.845 121.029 187.554C121.275 187.254 121.597 187.014 121.996 186.832C122.396 186.651 122.877 186.56 123.44 186.56C124.312 186.56 124.997 186.782 125.497 187.227C125.996 187.672 126.246 188.303 126.246 189.12V191.885C126.246 192.158 126.373 192.294 126.627 192.294H127.199V193.465H126.151C125.833 193.465 125.574 193.383 125.374 193.22C125.174 193.056 125.075 192.834 125.075 192.553V192.512H124.87C124.798 192.648 124.689 192.807 124.543 192.988C124.398 193.17 124.185 193.329 123.903 193.465C123.622 193.592 123.249 193.656 122.786 193.656ZM122.991 192.498C123.554 192.498 124.008 192.339 124.353 192.021C124.698 191.694 124.87 191.25 124.87 190.687V190.55H122.909C122.537 190.55 122.237 190.632 122.01 190.796C121.783 190.95 121.67 191.181 121.67 191.49C121.67 191.799 121.788 192.044 122.024 192.226C122.26 192.407 122.582 192.498 122.991 192.498ZM128.223 193.465V183.931H129.626V193.465H128.223ZM132.143 196.189V194.963H135.889C136.143 194.963 136.27 194.827 136.27 194.555V192.484H136.052C135.971 192.666 135.844 192.843 135.671 193.016C135.508 193.179 135.285 193.315 135.004 193.424C134.722 193.533 134.368 193.588 133.941 193.588C133.433 193.588 132.979 193.474 132.579 193.247C132.18 193.02 131.867 192.698 131.64 192.28C131.413 191.862 131.299 191.368 131.299 190.796V186.75H132.702V190.687C132.702 191.268 132.847 191.699 133.138 191.981C133.428 192.253 133.832 192.389 134.35 192.389C134.922 192.389 135.381 192.198 135.726 191.817C136.08 191.436 136.257 190.882 136.257 190.155V186.75H137.66V194.841C137.66 195.249 137.537 195.576 137.292 195.821C137.056 196.067 136.729 196.189 136.311 196.189H132.143ZM141.913 193.465C141.504 193.465 141.177 193.343 140.932 193.097C140.696 192.852 140.578 192.525 140.578 192.117V187.935H138.725V186.75H140.578V184.53H141.981V186.75H143.983V187.935H141.981V191.872C141.981 192.144 142.108 192.28 142.362 192.28H143.765V193.465H141.913ZM145.29 193.465V186.75H146.693V193.465H145.29ZM145.999 185.838C145.726 185.838 145.495 185.752 145.304 185.579C145.122 185.397 145.032 185.166 145.032 184.884C145.032 184.603 145.122 184.376 145.304 184.203C145.495 184.022 145.726 183.931 145.999 183.931C146.28 183.931 146.512 184.022 146.693 184.203C146.875 184.376 146.966 184.603 146.966 184.884C146.966 185.166 146.875 185.397 146.693 185.579C146.512 185.752 146.28 185.838 145.999 185.838ZM151.554 193.656C150.909 193.656 150.323 193.52 149.797 193.247C149.279 192.975 148.866 192.58 148.557 192.062C148.258 191.545 148.108 190.923 148.108 190.196V190.019C148.108 189.293 148.258 188.675 148.557 188.167C148.866 187.649 149.279 187.254 149.797 186.982C150.323 186.7 150.909 186.56 151.554 186.56C152.198 186.56 152.748 186.678 153.202 186.914C153.656 187.15 154.019 187.463 154.291 187.854C154.573 188.244 154.754 188.675 154.836 189.148L153.474 189.434C153.429 189.134 153.333 188.862 153.188 188.616C153.043 188.371 152.839 188.176 152.575 188.031C152.312 187.885 151.981 187.813 151.581 187.813C151.191 187.813 150.836 187.904 150.519 188.085C150.21 188.258 149.965 188.512 149.783 188.848C149.602 189.175 149.511 189.574 149.511 190.046V190.169C149.511 190.641 149.602 191.045 149.783 191.381C149.965 191.717 150.21 191.971 150.519 192.144C150.836 192.316 151.191 192.403 151.581 192.403C152.171 192.403 152.621 192.253 152.929 191.953C153.238 191.645 153.433 191.254 153.515 190.782L154.877 191.095C154.768 191.558 154.573 191.985 154.291 192.375C154.019 192.766 153.656 193.079 153.202 193.315C152.748 193.542 152.198 193.656 151.554 193.656ZM158.906 193.656C158.052 193.656 157.344 193.465 156.781 193.084C156.218 192.702 155.873 192.126 155.746 191.354L157.053 191.041C157.126 191.413 157.249 191.708 157.421 191.926C157.594 192.144 157.807 192.298 158.061 192.389C158.325 192.48 158.606 192.525 158.906 192.525C159.351 192.525 159.691 192.439 159.927 192.267C160.172 192.094 160.295 191.872 160.295 191.599C160.295 191.327 160.182 191.127 159.955 191C159.728 190.873 159.392 190.768 158.947 190.687L158.484 190.605C158.03 190.523 157.616 190.405 157.244 190.251C156.872 190.096 156.577 189.883 156.359 189.611C156.141 189.338 156.032 188.989 156.032 188.562C156.032 187.926 156.268 187.436 156.74 187.091C157.212 186.737 157.839 186.56 158.62 186.56C159.373 186.56 159.991 186.732 160.472 187.077C160.962 187.413 161.28 187.872 161.426 188.453L160.118 188.821C160.036 188.412 159.864 188.126 159.6 187.963C159.337 187.79 159.01 187.704 158.62 187.704C158.238 187.704 157.939 187.776 157.721 187.922C157.503 188.058 157.394 188.253 157.394 188.507C157.394 188.78 157.498 188.98 157.707 189.107C157.925 189.234 158.216 189.329 158.579 189.393L159.056 189.474C159.537 189.556 159.977 189.67 160.377 189.815C160.776 189.96 161.09 190.169 161.317 190.441C161.553 190.714 161.671 191.077 161.671 191.531C161.671 192.203 161.421 192.725 160.922 193.097C160.422 193.47 159.75 193.656 158.906 193.656Z" fill="black"/>
<rect x="67.3525" y="201.551" width="45.2867" height="9" rx="4.5" fill="black" fill-opacity="0.15"/>
<path opacity="0.25" d="M68.0735 277.848C68.0735 277.096 68.6833 276.486 69.4355 276.486H76.9199C77.6721 276.486 78.2819 277.096 78.2819 277.848V301.002C78.2819 301.754 77.6721 302.364 76.9199 302.364H69.4355C68.6833 302.364 68.0735 301.754 68.0735 301.002V277.848Z" fill="#DDA15E"/>
<path d="M81.006 265.59C81.006 264.838 81.6158 264.228 82.368 264.228H89.8524C90.6046 264.228 91.2144 264.838 91.2144 265.59V301.002C91.2144 301.755 90.6046 302.364 89.8524 302.364H82.368C81.6158 302.364 81.006 301.755 81.006 301.002V265.59Z" fill="#DDA15E"/>
<path opacity="0.25" d="M93.9385 281.594C93.9385 280.841 94.5483 280.232 95.3005 280.232H102.476C103.228 280.232 103.838 280.841 103.838 281.594V301.002C103.838 301.755 103.228 302.364 102.476 302.364H95.3005C94.5483 302.364 93.9385 301.755 93.9385 301.002V281.594Z" fill="#DDA15E"/>
<path d="M106.562 274.906C106.562 274.154 107.171 273.544 107.924 273.544H115.099C115.851 273.544 116.461 274.154 116.461 274.906V301.002C116.461 301.755 115.851 302.364 115.099 302.364H107.924C107.171 302.364 106.562 301.755 106.562 301.002V274.906Z" fill="#DDA15E"/>
<path opacity="0.25" d="M119.185 281.594C119.185 280.841 119.794 280.232 120.547 280.232H127.905C128.657 280.232 129.267 280.841 129.267 281.594V301.002C129.267 301.755 128.657 302.364 127.905 302.364H120.547C119.794 302.364 119.185 301.755 119.185 301.002V281.594Z" fill="#DDA15E"/>
<path d="M131.991 270.006C131.991 269.253 132.601 268.644 133.353 268.644H140.712C141.464 268.644 142.074 269.253 142.074 270.006V301.002C142.074 301.755 141.464 302.364 140.712 302.364H133.353C132.601 302.364 131.991 301.755 131.991 301.002V270.006Z" fill="#DDA15E"/>
<path opacity="0.25" d="M144.798 272.741C144.798 271.989 145.408 271.379 146.16 271.379H153.335C154.087 271.379 154.697 271.989 154.697 272.741V301.003C154.697 301.755 154.087 302.365 153.335 302.365H146.16C145.408 302.365 144.798 301.755 144.798 301.003V272.741Z" fill="#DDA15E"/>
<path d="M157.421 274.906C157.421 274.154 158.031 273.544 158.783 273.544H165.958C166.71 273.544 167.32 274.154 167.32 274.906V301.002C167.32 301.755 166.71 302.364 165.958 302.364H158.783C158.031 302.364 157.421 301.755 157.421 301.002V274.906Z" fill="#DDA15E"/>
<path opacity="0.25" d="M170.044 265.59C170.044 264.838 170.654 264.228 171.406 264.228H178.581C179.333 264.228 179.943 264.838 179.943 265.59V301.002C179.943 301.755 179.333 302.364 178.581 302.364H171.406C170.654 302.364 170.044 301.755 170.044 301.002V265.59Z" fill="#DDA15E"/>
<path d="M182.667 258.78C182.667 258.028 183.277 257.418 184.029 257.418H191.204C191.957 257.418 192.566 258.028 192.566 258.78V301.002C192.566 301.755 191.957 302.364 191.204 302.364H184.029C183.277 302.364 182.667 301.755 182.667 301.002V258.78Z" fill="#DDA15E"/>
<path opacity="0.25" d="M195.29 249.587C195.29 248.834 195.9 248.225 196.652 248.225H204.011C204.763 248.225 205.373 248.834 205.373 249.587V301.002C205.373 301.755 204.763 302.364 204.011 302.364H196.652C195.9 302.364 195.29 301.755 195.29 301.002V249.587Z" fill="#DDA15E"/>
<path d="M208.097 228.816C208.097 228.064 208.707 227.454 209.459 227.454H216.817C217.57 227.454 218.179 228.064 218.179 228.816V301.002C218.179 301.754 217.57 302.364 216.817 302.364H209.459C208.707 302.364 208.097 301.754 208.097 301.002V228.816Z" fill="#DDA15E"/>
</g>
<g filter="url(#filter3_d_67_172)">
<rect x="259.444" y="170.25" width="179.785" height="149.821" rx="4.08602" fill="white"/>
<g clip-path="url(#clip0_67_172)">
<path opacity="0.25" d="M422.885 308.834C423.637 308.834 424.248 308.224 424.235 307.472C423.883 287.646 415.854 268.707 401.808 254.661C387.44 240.293 367.953 232.221 347.634 232.221C327.315 232.221 307.828 240.293 293.461 254.661C279.415 268.707 271.386 287.646 271.034 307.472C271.02 308.224 271.631 308.834 272.383 308.834H281.151C281.904 308.834 282.512 308.224 282.528 307.472C282.878 290.694 289.696 274.678 301.587 262.787C313.799 250.574 330.363 243.713 347.634 243.713C364.905 243.713 381.469 250.574 393.682 262.787C405.573 274.678 412.39 290.694 412.741 307.472C412.757 308.224 413.365 308.834 414.117 308.834H422.885Z" fill="#DDA15E"/>
<path d="M272.383 308.834C271.631 308.834 271.02 308.224 271.034 307.472C271.242 295.76 274.133 284.246 279.492 273.817C285.059 262.984 293.129 253.634 303.032 246.543C312.935 239.452 324.386 234.825 336.435 233.044C348.034 231.33 359.867 232.302 371.021 235.878C371.737 236.108 372.118 236.883 371.876 237.595L369.051 245.895C368.809 246.607 368.035 246.987 367.318 246.759C357.894 243.771 347.907 242.966 338.115 244.413C327.873 245.926 318.14 249.859 309.722 255.887C301.305 261.914 294.446 269.861 289.714 279.069C285.189 287.873 282.734 297.588 282.528 307.472C282.512 308.224 281.904 308.834 281.151 308.834H272.383Z" fill="#555555"/>
<g filter="url(#filter4_d_67_172)">
<circle cx="368.405" cy="241.074" r="7.49103" fill="#DDA15E"/>
<circle cx="368.405" cy="241.074" r="8.51254" stroke="white" stroke-width="2.04301"/>
</g>
</g>
<path d="M274.557 193.465V183.931H280.441V185.266H276.028V188.017H280.087V189.352H276.028V193.465H274.557ZM281.573 193.465V186.75H282.976V193.465H281.573ZM282.281 185.838C282.009 185.838 281.777 185.752 281.587 185.579C281.405 185.397 281.314 185.166 281.314 184.884C281.314 184.603 281.405 184.376 281.587 184.203C281.777 184.022 282.009 183.931 282.281 183.931C282.563 183.931 282.794 184.022 282.976 184.203C283.157 184.376 283.248 184.603 283.248 184.884C283.248 185.166 283.157 185.397 282.976 185.579C282.794 185.752 282.563 185.838 282.281 185.838ZM284.717 193.465V186.75H286.093V187.758H286.311C286.438 187.486 286.665 187.232 286.992 186.996C287.319 186.759 287.804 186.641 288.449 186.641C288.958 186.641 289.407 186.755 289.798 186.982C290.197 187.209 290.51 187.531 290.737 187.949C290.964 188.358 291.078 188.852 291.078 189.434V193.465H289.675V189.543C289.675 188.961 289.53 188.535 289.239 188.262C288.949 187.981 288.549 187.84 288.041 187.84C287.459 187.84 286.992 188.031 286.638 188.412C286.293 188.793 286.12 189.347 286.12 190.074V193.465H284.717ZM294.84 193.656C294.359 193.656 293.928 193.574 293.546 193.411C293.174 193.247 292.874 193.007 292.647 192.689C292.429 192.371 292.32 191.985 292.32 191.531C292.32 191.068 292.429 190.687 292.647 190.387C292.874 190.078 293.179 189.847 293.56 189.692C293.95 189.538 294.391 189.461 294.881 189.461H296.924V189.025C296.924 188.635 296.806 188.321 296.57 188.085C296.334 187.849 295.971 187.731 295.48 187.731C294.999 187.731 294.631 187.845 294.377 188.072C294.123 188.299 293.955 188.594 293.873 188.957L292.566 188.535C292.675 188.171 292.847 187.845 293.083 187.554C293.328 187.254 293.651 187.014 294.05 186.832C294.45 186.651 294.931 186.56 295.494 186.56C296.366 186.56 297.051 186.782 297.551 187.227C298.05 187.672 298.3 188.303 298.3 189.12V191.885C298.3 192.158 298.427 192.294 298.681 192.294H299.253V193.465H298.204C297.887 193.465 297.628 193.383 297.428 193.22C297.228 193.056 297.128 192.834 297.128 192.553V192.512H296.924C296.851 192.648 296.742 192.807 296.597 192.988C296.452 193.17 296.238 193.329 295.957 193.465C295.676 193.592 295.303 193.656 294.84 193.656ZM295.044 192.498C295.607 192.498 296.061 192.339 296.406 192.021C296.752 191.694 296.924 191.25 296.924 190.687V190.55H294.963C294.59 190.55 294.291 190.632 294.064 190.796C293.837 190.95 293.723 191.181 293.723 191.49C293.723 191.799 293.841 192.044 294.077 192.226C294.314 192.407 294.636 192.498 295.044 192.498ZM300.277 193.465V186.75H301.652V187.758H301.87C301.997 187.486 302.224 187.232 302.551 186.996C302.878 186.759 303.364 186.641 304.008 186.641C304.517 186.641 304.966 186.755 305.357 186.982C305.756 187.209 306.07 187.531 306.297 187.949C306.524 188.358 306.637 188.852 306.637 189.434V193.465H305.234V189.543C305.234 188.961 305.089 188.535 304.798 188.262C304.508 187.981 304.108 187.84 303.6 187.84C303.019 187.84 302.551 188.031 302.197 188.412C301.852 188.793 301.679 189.347 301.679 190.074V193.465H300.277ZM311.435 193.656C310.79 193.656 310.204 193.52 309.678 193.247C309.16 192.975 308.747 192.58 308.438 192.062C308.139 191.545 307.989 190.923 307.989 190.196V190.019C307.989 189.293 308.139 188.675 308.438 188.167C308.747 187.649 309.16 187.254 309.678 186.982C310.204 186.7 310.79 186.56 311.435 186.56C312.079 186.56 312.629 186.678 313.083 186.914C313.537 187.15 313.9 187.463 314.172 187.854C314.454 188.244 314.635 188.675 314.717 189.148L313.355 189.434C313.31 189.134 313.214 188.862 313.069 188.616C312.924 188.371 312.719 188.176 312.456 188.031C312.193 187.885 311.861 187.813 311.462 187.813C311.071 187.813 310.717 187.904 310.399 188.085C310.091 188.258 309.846 188.512 309.664 188.848C309.482 189.175 309.392 189.574 309.392 190.046V190.169C309.392 190.641 309.482 191.045 309.664 191.381C309.846 191.717 310.091 191.971 310.399 192.144C310.717 192.316 311.071 192.403 311.462 192.403C312.052 192.403 312.502 192.253 312.81 191.953C313.119 191.645 313.314 191.254 313.396 190.782L314.758 191.095C314.649 191.558 314.454 191.985 314.172 192.375C313.9 192.766 313.537 193.079 313.083 193.315C312.629 193.542 312.079 193.656 311.435 193.656ZM316.035 193.465V186.75H317.438V193.465H316.035ZM316.744 185.838C316.471 185.838 316.24 185.752 316.049 185.579C315.867 185.397 315.777 185.166 315.777 184.884C315.777 184.603 315.867 184.376 316.049 184.203C316.24 184.022 316.471 183.931 316.744 183.931C317.025 183.931 317.257 184.022 317.438 184.203C317.62 184.376 317.711 184.603 317.711 184.884C317.711 185.166 317.62 185.397 317.438 185.579C317.257 185.752 317.025 185.838 316.744 185.838ZM321.264 193.656C320.782 193.656 320.351 193.574 319.97 193.411C319.597 193.247 319.298 193.007 319.071 192.689C318.853 192.371 318.744 191.985 318.744 191.531C318.744 191.068 318.853 190.687 319.071 190.387C319.298 190.078 319.602 189.847 319.983 189.692C320.374 189.538 320.814 189.461 321.304 189.461H323.347V189.025C323.347 188.635 323.229 188.321 322.993 188.085C322.757 187.849 322.394 187.731 321.904 187.731C321.423 187.731 321.055 187.845 320.801 188.072C320.546 188.299 320.378 188.594 320.297 188.957L318.989 188.535C319.098 188.171 319.271 187.845 319.507 187.554C319.752 187.254 320.074 187.014 320.474 186.832C320.873 186.651 321.354 186.56 321.917 186.56C322.789 186.56 323.475 186.782 323.974 187.227C324.473 187.672 324.723 188.303 324.723 189.12V191.885C324.723 192.158 324.85 192.294 325.104 192.294H325.677V193.465H324.628C324.31 193.465 324.051 193.383 323.851 193.22C323.652 193.056 323.552 192.834 323.552 192.553V192.512H323.347C323.275 192.648 323.166 192.807 323.021 192.988C322.875 193.17 322.662 193.329 322.38 193.465C322.099 193.592 321.727 193.656 321.264 193.656ZM321.468 192.498C322.031 192.498 322.485 192.339 322.83 192.021C323.175 191.694 323.347 191.25 323.347 190.687V190.55H321.386C321.014 190.55 320.714 190.632 320.487 190.796C320.26 190.95 320.147 191.181 320.147 191.49C320.147 191.799 320.265 192.044 320.501 192.226C320.737 192.407 321.059 192.498 321.468 192.498ZM326.7 193.465V183.931H328.103V193.465H326.7ZM336.517 193.656C335.345 193.656 334.415 193.329 333.724 192.675C333.034 192.012 332.689 191.059 332.689 189.815V187.581C332.689 186.337 333.034 185.388 333.724 184.735C334.415 184.072 335.345 183.74 336.517 183.74C337.688 183.74 338.619 184.072 339.309 184.735C340.008 185.388 340.357 186.337 340.357 187.581V189.815C340.357 191.059 340.008 192.012 339.309 192.675C338.619 193.329 337.688 193.656 336.517 193.656ZM336.517 192.335C337.27 192.335 337.851 192.117 338.26 191.681C338.669 191.236 338.873 190.632 338.873 189.869V187.527C338.873 186.764 338.669 186.165 338.26 185.729C337.851 185.284 337.27 185.062 336.517 185.062C335.781 185.062 335.205 185.284 334.787 185.729C334.369 186.165 334.16 186.764 334.16 187.527V189.869C334.16 190.632 334.369 191.236 334.787 191.681C335.205 192.117 335.781 192.335 336.517 192.335ZM344.373 193.588C343.865 193.588 343.411 193.474 343.011 193.247C342.612 193.02 342.299 192.698 342.072 192.28C341.845 191.862 341.731 191.363 341.731 190.782V186.75H343.134V190.687C343.134 191.268 343.279 191.699 343.57 191.981C343.86 192.253 344.264 192.389 344.782 192.389C345.354 192.389 345.813 192.198 346.158 191.817C346.512 191.427 346.689 190.868 346.689 190.142V186.75H348.092V193.465H346.716V192.457H346.498C346.371 192.73 346.144 192.988 345.817 193.234C345.49 193.47 345.009 193.588 344.373 193.588ZM352.345 193.465C351.936 193.465 351.609 193.343 351.364 193.097C351.128 192.852 351.01 192.525 351.01 192.117V187.935H349.157V186.75H351.01V184.53H352.413V186.75H354.415V187.935H352.413V191.872C352.413 192.144 352.54 192.28 352.794 192.28H354.197V193.465H352.345ZM358.602 193.656C357.957 193.656 357.372 193.52 356.845 193.247C356.327 192.975 355.914 192.58 355.606 192.062C355.306 191.545 355.156 190.923 355.156 190.196V190.019C355.156 189.293 355.306 188.675 355.606 188.167C355.914 187.649 356.327 187.254 356.845 186.982C357.372 186.7 357.957 186.56 358.602 186.56C359.247 186.56 359.796 186.678 360.25 186.914C360.704 187.15 361.067 187.463 361.34 187.854C361.621 188.244 361.803 188.675 361.884 189.148L360.522 189.434C360.477 189.134 360.382 188.862 360.236 188.616C360.091 188.371 359.887 188.176 359.624 188.031C359.36 187.885 359.029 187.813 358.629 187.813C358.239 187.813 357.885 187.904 357.567 188.085C357.258 188.258 357.013 188.512 356.831 188.848C356.65 189.175 356.559 189.574 356.559 190.046V190.169C356.559 190.641 356.65 191.045 356.831 191.381C357.013 191.717 357.258 191.971 357.567 192.144C357.885 192.316 358.239 192.403 358.629 192.403C359.219 192.403 359.669 192.253 359.978 191.953C360.286 191.645 360.482 191.254 360.563 190.782L361.925 191.095C361.816 191.558 361.621 191.985 361.34 192.375C361.067 192.766 360.704 193.079 360.25 193.315C359.796 193.542 359.247 193.656 358.602 193.656ZM366.349 193.656C365.677 193.656 365.078 193.52 364.551 193.247C364.034 192.966 363.625 192.566 363.325 192.049C363.026 191.531 362.876 190.918 362.876 190.21V190.006C362.876 189.297 363.026 188.689 363.325 188.181C363.625 187.663 364.034 187.263 364.551 186.982C365.078 186.7 365.677 186.56 366.349 186.56C367.021 186.56 367.62 186.7 368.147 186.982C368.674 187.263 369.087 187.663 369.386 188.181C369.686 188.689 369.836 189.297 369.836 190.006V190.21C369.836 190.918 369.686 191.531 369.386 192.049C369.087 192.566 368.674 192.966 368.147 193.247C367.62 193.52 367.021 193.656 366.349 193.656ZM366.349 192.403C366.967 192.403 367.466 192.208 367.847 191.817C368.238 191.418 368.433 190.868 368.433 190.169V190.046C368.433 189.347 368.242 188.802 367.861 188.412C367.48 188.013 366.976 187.813 366.349 187.813C365.741 187.813 365.241 188.013 364.851 188.412C364.47 188.802 364.279 189.347 364.279 190.046V190.169C364.279 190.868 364.47 191.418 364.851 191.817C365.241 192.208 365.741 192.403 366.349 192.403ZM371.242 193.465V186.75H372.618V187.54H372.835C372.963 187.304 373.167 187.095 373.448 186.914C373.73 186.732 374.111 186.641 374.592 186.641C375.092 186.641 375.491 186.746 375.791 186.955C376.1 187.154 376.331 187.413 376.486 187.731H376.704C376.858 187.422 377.08 187.164 377.371 186.955C377.671 186.746 378.093 186.641 378.638 186.641C379.073 186.641 379.459 186.732 379.795 186.914C380.131 187.086 380.399 187.35 380.599 187.704C380.799 188.049 380.899 188.48 380.899 188.998V193.465H379.496V189.107C379.496 188.698 379.382 188.385 379.155 188.167C378.937 187.94 378.624 187.826 378.215 187.826C377.78 187.826 377.43 187.967 377.167 188.249C376.903 188.53 376.772 188.934 376.772 189.461V193.465H375.369V189.107C375.369 188.698 375.255 188.385 375.028 188.167C374.81 187.94 374.497 187.826 374.088 187.826C373.653 187.826 373.303 187.967 373.04 188.249C372.776 188.53 372.645 188.934 372.645 189.461V193.465H371.242ZM385.658 193.656C384.977 193.656 384.382 193.515 383.873 193.234C383.365 192.943 382.965 192.539 382.675 192.021C382.393 191.495 382.253 190.886 382.253 190.196V190.033C382.253 189.334 382.393 188.725 382.675 188.208C382.956 187.681 383.347 187.277 383.846 186.996C384.355 186.705 384.94 186.56 385.603 186.56C386.248 186.56 386.811 186.705 387.292 186.996C387.782 187.277 388.164 187.672 388.436 188.181C388.709 188.689 388.845 189.284 388.845 189.965V190.496H383.683C383.701 191.086 383.896 191.558 384.268 191.912C384.65 192.257 385.122 192.43 385.685 192.43C386.212 192.43 386.607 192.312 386.87 192.076C387.142 191.84 387.351 191.567 387.496 191.259L388.654 191.858C388.527 192.112 388.341 192.38 388.096 192.662C387.86 192.943 387.546 193.179 387.156 193.37C386.765 193.56 386.266 193.656 385.658 193.656ZM383.696 189.42H387.415C387.378 188.911 387.197 188.516 386.87 188.235C386.543 187.944 386.116 187.799 385.59 187.799C385.063 187.799 384.632 187.944 384.296 188.235C383.969 188.516 383.769 188.911 383.696 189.42ZM392.944 193.656C392.091 193.656 391.382 193.465 390.819 193.084C390.256 192.702 389.911 192.126 389.784 191.354L391.092 191.041C391.164 191.413 391.287 191.708 391.46 191.926C391.632 192.144 391.845 192.298 392.1 192.389C392.363 192.48 392.645 192.525 392.944 192.525C393.389 192.525 393.73 192.439 393.966 192.267C394.211 192.094 394.333 191.872 394.333 191.599C394.333 191.327 394.22 191.127 393.993 191C393.766 190.873 393.43 190.768 392.985 190.687L392.522 190.605C392.068 190.523 391.655 190.405 391.283 190.251C390.91 190.096 390.615 189.883 390.397 189.611C390.179 189.338 390.07 188.989 390.07 188.562C390.07 187.926 390.306 187.436 390.779 187.091C391.251 186.737 391.877 186.56 392.658 186.56C393.412 186.56 394.029 186.732 394.51 187.077C395.001 187.413 395.319 187.872 395.464 188.453L394.156 188.821C394.075 188.412 393.902 188.126 393.639 187.963C393.375 187.79 393.049 187.704 392.658 187.704C392.277 187.704 391.977 187.776 391.759 187.922C391.541 188.058 391.432 188.253 391.432 188.507C391.432 188.78 391.537 188.98 391.746 189.107C391.964 189.234 392.254 189.329 392.617 189.393L393.094 189.474C393.575 189.556 394.016 189.67 394.415 189.815C394.815 189.96 395.128 190.169 395.355 190.441C395.591 190.714 395.709 191.077 395.709 191.531C395.709 192.203 395.459 192.725 394.96 193.097C394.461 193.47 393.789 193.656 392.944 193.656Z" fill="black"/>
<rect x="273.563" y="201.551" width="45.2867" height="9" rx="4.5" fill="black" fill-opacity="0.15"/>
</g>
</g>
</g>
<defs>
<filter id="filter0_d_67_172" x="6.98936" y="61.6596" width="472.021" height="305.021" filterUnits="userSpaceOnUse" color-interpolation-filters="sRGB">
<feFlood flood-opacity="0" result="BackgroundImageFix"/>
<feColorMatrix in="SourceAlpha" type="matrix" values="0 0 0 0 0 0 0 0 0 0 0 0 0 0 0 0 0 0 127 0" result="hardAlpha"/>
<feOffset dy="3.67021"/>
<feGaussianBlur stdDeviation="5.50532"/>
<feComposite in2="hardAlpha" operator="out"/>
<feColorMatrix type="matrix" values="0 0 0 0 0 0 0 0 0 0 0 0 0 0 0 0 0 0 0.15 0"/>
<feBlend mode="normal" in2="BackgroundImageFix" result="effect1_dropShadow_67_172"/>
<feBlend mode="normal" in="SourceGraphic" in2="effect1_dropShadow_67_172" result="shape"/>
</filter>
<filter id="filter1_d_67_172" x="6.98936" y="61.6596" width="472.021" height="305.021" filterUnits="userSpaceOnUse" color-interpolation-filters="sRGB">
<feFlood flood-opacity="0" result="BackgroundImageFix"/>
<feColorMatrix in="SourceAlpha" type="matrix" values="0 0 0 0 0 0 0 0 0 0 0 0 0 0 0 0 0 0 127 0" result="hardAlpha"/>
<feOffset dy="3.67021"/>
<feGaussianBlur stdDeviation="5.50532"/>
<feComposite in2="hardAlpha" operator="out"/>
<feColorMatrix type="matrix" values="0 0 0 0 0 0 0 0 0 0 0 0 0 0 0 0 0 0 0.15 0"/>
<feBlend mode="normal" in2="BackgroundImageFix" result="effect1_dropShadow_67_172"/>
<feBlend mode="normal" in="SourceGraphic" in2="effect1_dropShadow_67_172" result="shape"/>
</filter>
<filter id="filter2_d_67_172" x="43.019" y="163.44" width="200.215" height="170.251" filterUnits="userSpaceOnUse" color-interpolation-filters="sRGB">
<feFlood flood-opacity="0" result="BackgroundImageFix"/>
<feColorMatrix in="SourceAlpha" type="matrix" values="0 0 0 0 0 0 0 0 0 0 0 0 0 0 0 0 0 0 127 0" result="hardAlpha"/>
<feOffset dy="3.40501"/>
<feGaussianBlur stdDeviation="5.10752"/>
<feComposite in2="hardAlpha" operator="out"/>
<feColorMatrix type="matrix" values="0 0 0 0 0 0 0 0 0 0 0 0 0 0 0 0 0 0 0.15 0"/>
<feBlend mode="normal" in2="BackgroundImageFix" result="effect1_dropShadow_67_172"/>
<feBlend mode="normal" in="SourceGraphic" in2="effect1_dropShadow_67_172" result="shape"/>
</filter>
<filter id="filter3_d_67_172" x="249.229" y="163.44" width="200.215" height="170.251" filterUnits="userSpaceOnUse" color-interpolation-filters="sRGB">
<feFlood flood-opacity="0" result="BackgroundImageFix"/>
<feColorMatrix in="SourceAlpha" type="matrix" values="0 0 0 0 0 0 0 0 0 0 0 0 0 0 0 0 0 0 127 0" result="hardAlpha"/>
<feOffset dy="3.40501"/>
<feGaussianBlur stdDeviation="5.10752"/>
<feColorMatrix type="matrix" values="0 0 0 0 0 0 0 0 0 0 0 0 0 0 0 0 0 0 0.15 0"/>
<feBlend mode="normal" in2="BackgroundImageFix" result="effect1_dropShadow_67_172"/>
<feBlend mode="normal" in="SourceGraphic" in2="effect1_dropShadow_67_172" result="shape"/>
</filter>
<filter id="filter4_d_67_172" x="357.509" y="231.54" width="21.7921" height="21.7921" filterUnits="userSpaceOnUse" color-interpolation-filters="sRGB">
<feFlood flood-opacity="0" result="BackgroundImageFix"/>
<feColorMatrix in="SourceAlpha" type="matrix" values="0 0 0 0 0 0 0 0 0 0 0 0 0 0 0 0 0 0 127 0" result="hardAlpha"/>
<feMorphology radius="1.36201" operator="erode" in="SourceAlpha" result="effect1_dropShadow_67_172"/>
<feOffset dy="1.36201"/>
<feGaussianBlur stdDeviation="1.36201"/>
<feColorMatrix type="matrix" values="0 0 0 0 0 0 0 0 0 0 0 0 0 0 0 0 0 0 0.25 0"/>
<feBlend mode="normal" in2="BackgroundImageFix" result="effect1_dropShadow_67_172"/>
<feBlend mode="normal" in="SourceGraphic" in2="effect1_dropShadow_67_172" result="shape"/>
</filter>
<clipPath id="clip0_67_172">
<rect width="153.226" height="76.9533" fill="white" transform="translate(271.021 232.221)"/>
</clipPath>
</defs>
</svg>
