<svg width="100%" height="401" viewBox="0 0 500 401" fill="none" xmlns="http://www.w3.org/2000/svg">
<rect y="0.5" width="500" height="400" rx="16" fill="#EED0AF"/>
<g filter="url(#filter0_d_67_129)">
<g filter="url(#filter1_d_67_129)">
<rect x="120.258" y="54.1294" width="355.736" height="292.741" rx="14.8223" fill="white"/>
<rect x="153.979" y="86.7385" width="126.877" height="9" rx="4.5" fill="#DDA15E"/>
<rect x="153.979" y="103.15" width="218.007" height="9" rx="4.5" fill="#F9EFE4"/>
<g filter="url(#filter2_d_67_129)">
<rect x="262.983" y="139.358" width="177.127" height="54.4721" rx="7.41116" fill="white"/>
<rect x="310.074" y="156.218" width="80.8957" height="9" rx="4.5" fill="#EBE9E9"/>
<rect x="310.074" y="171.147" width="112.249" height="9" rx="4.5" fill="#EBE9E9"/>
<circle cx="286.173" cy="166.594" r="16.4898" fill="#F9EFE4"/>
<path d="M286.268 167.15C287.394 167.15 288.306 166.237 288.306 165.112C288.306 163.986 287.394 163.074 286.268 163.074C285.143 163.074 284.23 163.986 284.23 165.112C284.23 166.237 285.143 167.15 286.268 167.15Z" fill="#DDA15E"/>
<path d="M288.121 167.15H284.416C283.924 167.15 283.453 167.345 283.106 167.693C282.758 168.04 282.563 168.511 282.563 169.003V171.145C283.045 171.639 283.621 172.033 284.257 172.301C284.894 172.57 285.578 172.708 286.268 172.708C286.959 172.708 287.643 172.57 288.279 172.301C288.916 172.033 289.492 171.639 289.974 171.145V169.003C289.974 168.511 289.779 168.04 289.431 167.693C289.084 167.345 288.613 167.15 288.121 167.15Z" fill="#DDA15E"/>
<path d="M296.644 168.538V166.503C296.644 166.377 296.62 166.252 296.572 166.136C296.523 166.02 296.453 165.914 296.364 165.825C296.275 165.736 296.169 165.665 296.053 165.617C295.937 165.569 295.812 165.544 295.686 165.544C295.479 165.546 295.277 165.481 295.11 165.361C294.942 165.24 294.817 165.069 294.753 164.872C294.594 164.363 294.389 163.87 294.141 163.398C294.046 163.213 294.013 163.003 294.046 162.799C294.079 162.594 294.176 162.405 294.324 162.26C294.413 162.171 294.483 162.065 294.532 161.949C294.58 161.833 294.605 161.708 294.605 161.582C294.605 161.456 294.58 161.332 294.532 161.215C294.483 161.099 294.413 160.993 294.324 160.904L292.884 159.464C292.795 159.375 292.689 159.305 292.573 159.257C292.457 159.208 292.332 159.184 292.206 159.184C292.08 159.184 291.956 159.208 291.839 159.257C291.723 159.305 291.617 159.375 291.528 159.464C291.383 159.612 291.194 159.71 290.99 159.742C290.785 159.775 290.575 159.742 290.391 159.648C289.919 159.399 289.425 159.195 288.916 159.035C288.719 158.971 288.548 158.846 288.428 158.679C288.307 158.511 288.243 158.309 288.244 158.102C288.244 157.848 288.143 157.605 287.964 157.425C287.784 157.246 287.54 157.145 287.286 157.145H285.251C285.125 157.145 285.001 157.169 284.884 157.218C284.768 157.266 284.662 157.336 284.573 157.425C284.484 157.514 284.413 157.62 284.365 157.736C284.317 157.852 284.292 157.977 284.292 158.103V158.124C284.294 158.324 284.232 158.521 284.115 158.683C283.998 158.846 283.832 158.968 283.641 159.029C283.125 159.19 282.624 159.397 282.146 159.648C281.961 159.743 281.752 159.776 281.547 159.743C281.342 159.71 281.154 159.613 281.008 159.465C280.919 159.376 280.814 159.306 280.697 159.257C280.581 159.209 280.456 159.184 280.33 159.184C280.205 159.184 280.08 159.209 279.964 159.257C279.847 159.306 279.742 159.376 279.653 159.465L278.213 160.905C278.124 160.994 278.053 161.1 278.005 161.216C277.957 161.332 277.932 161.457 277.932 161.583C277.932 161.709 277.957 161.833 278.005 161.95C278.053 162.066 278.124 162.172 278.213 162.261C278.36 162.406 278.458 162.595 278.491 162.8C278.524 163.004 278.49 163.214 278.396 163.398C278.148 163.87 277.943 164.364 277.784 164.873C277.72 165.07 277.595 165.241 277.427 165.361C277.259 165.482 277.057 165.546 276.851 165.545C276.597 165.545 276.353 165.646 276.173 165.826C275.994 166.005 275.893 166.249 275.893 166.503V168.538C275.893 168.664 275.918 168.789 275.966 168.905C276.014 169.021 276.084 169.127 276.173 169.216C276.262 169.305 276.368 169.376 276.484 169.424C276.601 169.472 276.725 169.497 276.851 169.497C277.058 169.495 277.26 169.559 277.427 169.68C277.595 169.8 277.72 169.971 277.784 170.168C277.943 170.677 278.148 171.171 278.397 171.643C278.491 171.828 278.524 172.037 278.491 172.242C278.459 172.447 278.361 172.635 278.213 172.781C278.124 172.87 278.054 172.975 278.006 173.092C277.957 173.208 277.933 173.333 277.933 173.459C277.933 173.584 277.957 173.709 278.006 173.825C278.054 173.942 278.124 174.047 278.213 174.136L279.653 175.576C279.742 175.665 279.848 175.736 279.964 175.784C280.081 175.832 280.205 175.857 280.331 175.857C280.457 175.857 280.582 175.832 280.698 175.784C280.814 175.736 280.92 175.665 281.009 175.576C281.154 175.429 281.343 175.331 281.548 175.298C281.752 175.265 281.962 175.299 282.147 175.393C282.619 175.641 283.112 175.846 283.621 176.005C283.818 176.07 283.989 176.194 284.11 176.362C284.23 176.53 284.295 176.732 284.293 176.939C284.293 177.193 284.394 177.436 284.574 177.616C284.753 177.795 284.997 177.896 285.251 177.896H287.286C287.412 177.896 287.537 177.871 287.653 177.823C287.769 177.775 287.875 177.705 287.964 177.616C288.053 177.527 288.124 177.421 288.172 177.305C288.22 177.188 288.245 177.064 288.245 176.938C288.244 176.731 288.308 176.529 288.428 176.361C288.549 176.194 288.72 176.069 288.917 176.005C289.426 175.845 289.919 175.641 290.391 175.393C290.576 175.298 290.786 175.265 290.99 175.298C291.195 175.331 291.384 175.428 291.529 175.576C291.618 175.665 291.724 175.735 291.84 175.783C291.956 175.832 292.081 175.856 292.207 175.856C292.333 175.856 292.457 175.832 292.574 175.783C292.69 175.735 292.796 175.665 292.885 175.576L294.325 174.136C294.414 174.047 294.484 173.941 294.532 173.825C294.581 173.708 294.605 173.584 294.605 173.458C294.605 173.332 294.581 173.207 294.532 173.091C294.484 172.975 294.414 172.869 294.325 172.78C294.177 172.635 294.08 172.446 294.047 172.241C294.014 172.037 294.047 171.827 294.142 171.642C294.393 171.164 294.6 170.664 294.76 170.148C294.822 169.957 294.943 169.791 295.106 169.673C295.269 169.556 295.465 169.494 295.666 169.496H295.687C295.941 169.496 296.184 169.395 296.364 169.215C296.543 169.036 296.644 168.792 296.644 168.538ZM286.269 174.19C284.949 174.19 283.66 173.799 282.563 173.066C281.466 172.333 280.611 171.292 280.106 170.073C279.601 168.854 279.469 167.513 279.727 166.219C279.984 164.925 280.619 163.737 281.552 162.804C282.485 161.871 283.674 161.236 284.967 160.979C286.261 160.721 287.602 160.853 288.821 161.358C290.04 161.863 291.082 162.718 291.815 163.815C292.548 164.912 292.939 166.201 292.939 167.52C292.939 168.396 292.766 169.264 292.431 170.073C292.096 170.882 291.604 171.617 290.985 172.237C290.366 172.856 289.63 173.348 288.821 173.683C288.012 174.018 287.145 174.19 286.269 174.19Z" fill="#DDA15E"/>
</g>
<g filter="url(#filter3_d_67_129)">
<rect x="262.983" y="201.612" width="177.127" height="54.4721" rx="7.41116" fill="white"/>
<rect x="310.074" y="218.472" width="80.8957" height="9" rx="4.5" fill="#EBE9E9"/>
<rect x="310.074" y="233.401" width="112.249" height="9" rx="4.5" fill="#EBE9E9"/>
<circle cx="286.173" cy="228.848" r="16.4898" fill="#F9EFE4"/>
<path d="M286.173 239.223C288.225 239.223 290.231 238.615 291.937 237.475C293.644 236.335 294.974 234.714 295.759 232.818C296.544 230.922 296.75 228.836 296.349 226.824C295.949 224.811 294.961 222.962 293.51 221.511C292.059 220.06 290.21 219.072 288.197 218.672C286.185 218.271 284.098 218.477 282.203 219.262C280.307 220.047 278.686 221.377 277.546 223.083C276.406 224.79 275.797 226.796 275.797 228.848C275.797 231.6 276.891 234.239 278.836 236.184C280.782 238.13 283.421 239.223 286.173 239.223ZM287.038 230.001H285.308C284.354 230.036 283.424 229.692 282.722 229.044C282.019 228.396 281.602 227.497 281.562 226.542C281.597 225.639 281.974 224.782 282.615 224.145C283.257 223.508 284.117 223.139 285.02 223.11V221.931H287.326V223.11C288.23 223.139 289.089 223.508 289.731 224.145C290.373 224.782 290.749 225.639 290.784 226.542H288.479C288.436 226.2 288.261 225.888 287.992 225.673C287.723 225.458 287.381 225.356 287.038 225.389H285.308C285.136 225.35 284.956 225.351 284.783 225.391C284.611 225.431 284.449 225.509 284.311 225.619C284.173 225.73 284.061 225.87 283.984 226.03C283.907 226.19 283.867 226.365 283.867 226.542C283.867 226.719 283.907 226.894 283.984 227.054C284.061 227.214 284.173 227.354 284.311 227.465C284.449 227.576 284.611 227.654 284.783 227.694C284.956 227.733 285.136 227.734 285.308 227.695H287.038C287.993 227.659 288.923 228.003 289.625 228.651C290.327 229.299 290.744 230.199 290.784 231.153C290.749 232.057 290.373 232.913 289.731 233.55C289.089 234.187 288.23 234.557 287.326 234.586V235.765H285.02V234.586C284.117 234.557 283.257 234.187 282.615 233.55C281.974 232.913 281.597 232.057 281.562 231.153H283.867C283.91 231.495 284.085 231.807 284.354 232.023C284.623 232.238 284.965 232.34 285.308 232.306H287.038C287.211 232.345 287.39 232.345 287.563 232.305C287.735 232.265 287.897 232.187 288.035 232.076C288.174 231.966 288.285 231.825 288.362 231.665C288.439 231.506 288.479 231.331 288.479 231.153C288.479 230.976 288.439 230.801 288.362 230.642C288.285 230.482 288.174 230.341 288.035 230.231C287.897 230.12 287.735 230.042 287.563 230.002C287.39 229.962 287.211 229.962 287.038 230.001Z" fill="#DDA15E"/>
</g>
<g filter="url(#filter4_d_67_129)">
<rect x="262.983" y="263.865" width="177.127" height="54.4721" rx="7.41116" fill="white"/>
<rect x="310.074" y="280.726" width="80.8957" height="9" rx="4.5" fill="#EBE9E9"/>
<rect x="310.074" y="295.655" width="112.249" height="9" rx="4.5" fill="#EBE9E9"/>
<circle cx="286.173" cy="291.101" r="16.4898" fill="#F9EFE4"/>
</g>
<path d="M275.593 296.216V299.841H278.283V294.039L275.593 296.216Z" fill="#DDA15E"/>
<path d="M280.027 292.628V299.841H282.717V290.458L280.027 292.628Z" fill="#DDA15E"/>
<path d="M285.112 288.53L284.461 289.055V299.841H287.151V289.64L285.112 288.53Z" fill="#DDA15E"/>
<path d="M293.605 290.044V299.844H296.294V286.781L293.605 290.044Z" fill="#DDA15E"/>
<path d="M288.895 290.593V299.844H291.585V292.057L288.895 290.593Z" fill="#DDA15E"/>
<path d="M296.753 282.359L292.864 284.063L293.783 284.74L291.503 287.51L285.073 284.007L284.527 284.444C284.527 284.444 281.457 286.915 278.379 289.4L275.593 291.653V294.356C277.998 292.4 282.101 289.09 285.298 286.518L292.02 290.183L295.478 285.984L296.282 286.577L296.753 282.359Z" fill="#DDA15E"/>
</g>
<path d="M246.619 168.632L241.078 167.538L242.9 172.883L246.619 168.632ZM92.4391 221.714L93.3577 221.401L93.042 220.475L92.1234 220.788L92.4391 221.714ZM95.1951 220.775L97.0324 220.148L96.7167 219.222L94.8794 219.849L95.1951 220.775ZM98.8698 219.522L100.707 218.895L100.391 217.969L98.5541 218.596L98.8698 219.522ZM102.544 218.269L104.382 217.643L104.066 216.717L102.229 217.343L102.544 218.269ZM106.219 217.016L108.057 216.39L107.741 215.464L105.904 216.09L106.219 217.016ZM109.894 215.763L111.731 215.137L111.416 214.211L109.578 214.837L109.894 215.763ZM113.569 214.51L115.406 213.884L115.09 212.958L113.253 213.585L113.569 214.51ZM117.243 213.258L119.081 212.631L118.765 211.705L116.928 212.332L117.243 213.258ZM120.918 212.005L122.755 211.378L122.44 210.452L120.602 211.079L120.918 212.005ZM124.593 210.752L126.43 210.126L126.114 209.2L124.277 209.826L124.593 210.752ZM128.267 209.499L130.105 208.873L129.789 207.947L127.952 208.573L128.267 209.499ZM131.942 208.246L133.779 207.62L133.464 206.694L131.626 207.32L131.942 208.246ZM135.617 206.993L137.454 206.367L137.138 205.441L135.301 206.068L135.617 206.993ZM139.292 205.741L141.129 205.114L140.813 204.188L138.976 204.815L139.292 205.741ZM142.966 204.488L144.804 203.861L144.488 202.935L142.651 203.562L142.966 204.488ZM146.641 203.235L148.478 202.609L148.163 201.683L146.325 202.309L146.641 203.235ZM150.316 201.982L152.153 201.356L151.837 200.43L150 201.056L150.316 201.982ZM153.99 200.729L155.828 200.103L155.512 199.177L153.675 199.803L153.99 200.729ZM157.665 199.476L159.502 198.85L159.187 197.924L157.349 198.55L157.665 199.476ZM161.34 198.224L163.177 197.597L162.861 196.671L161.024 197.298L161.34 198.224ZM165.014 196.971L166.852 196.344L166.536 195.418L164.699 196.045L165.014 196.971ZM168.689 195.718L170.526 195.091L170.211 194.166L168.373 194.792L168.689 195.718ZM172.364 194.465L174.201 193.839L173.885 192.913L172.048 193.539L172.364 194.465ZM176.039 193.212L177.876 192.586L177.56 191.66L175.723 192.286L176.039 193.212ZM179.713 191.959L181.551 191.333L181.235 190.407L179.398 191.033L179.713 191.959ZM183.388 190.707L185.225 190.08L184.91 189.154L183.072 189.781L183.388 190.707ZM187.063 189.454L188.9 188.827L188.584 187.901L186.747 188.528L187.063 189.454ZM190.737 188.201L192.575 187.574L192.259 186.649L190.422 187.275L190.737 188.201ZM194.412 186.948L196.249 186.322L195.934 185.396L194.096 186.022L194.412 186.948ZM198.087 185.695L199.924 185.069L199.608 184.143L197.771 184.769L198.087 185.695ZM201.761 184.442L203.599 183.816L203.283 182.89L201.446 183.516L201.761 184.442ZM205.436 183.19L207.273 182.563L206.958 181.637L205.12 182.264L205.436 183.19ZM209.111 181.937L210.948 181.31L210.632 180.384L208.795 181.011L209.111 181.937ZM212.786 180.684L214.623 180.057L214.307 179.131L212.47 179.758L212.786 180.684ZM216.46 179.431L218.298 178.805L217.982 177.879L216.145 178.505L216.46 179.431ZM220.135 178.178L221.972 177.552L221.657 176.626L219.819 177.252L220.135 178.178ZM223.81 176.925L225.647 176.299L225.331 175.373L223.494 175.999L223.81 176.925ZM227.484 175.672L229.322 175.046L229.006 174.12L227.169 174.747L227.484 175.672ZM231.159 174.42L232.996 173.793L232.681 172.867L230.843 173.494L231.159 174.42ZM234.834 173.167L236.671 172.54L236.355 171.614L234.518 172.241L234.834 173.167ZM238.509 171.914L240.346 171.287L240.03 170.362L238.193 170.988L238.509 171.914ZM242.183 170.661L244.021 170.035L243.705 169.109L241.868 169.735L242.183 170.661Z" fill="black"/>
<path d="M246.063 229.774L241.216 226.875L241.129 232.522L246.063 229.774ZM89.4946 227.854L90.4731 227.869L90.4881 226.891L89.5096 226.876L89.4946 227.854ZM92.4301 227.899L94.3871 227.93L94.4021 226.951L92.4451 226.921L92.4301 227.899ZM96.3441 227.96L98.3011 227.99L98.3161 227.012L96.3591 226.982L96.3441 227.96ZM100.258 228.02L102.215 228.05L102.23 227.072L100.273 227.042L100.258 228.02ZM104.172 228.08L106.129 228.11L106.144 227.132L104.187 227.102L104.172 228.08ZM108.086 228.14L110.043 228.17L110.058 227.192L108.101 227.162L108.086 228.14ZM112 228.201L113.957 228.231L113.972 227.253L112.015 227.222L112 228.201ZM115.914 228.261L117.871 228.291L117.886 227.313L115.929 227.283L115.914 228.261ZM119.828 228.321L121.785 228.351L121.8 227.373L119.843 227.343L119.828 228.321ZM123.742 228.381L125.699 228.411L125.714 227.433L123.757 227.403L123.742 228.381ZM127.656 228.441L129.613 228.472L129.628 227.493L127.671 227.463L127.656 228.441ZM131.57 228.502L133.527 228.532L133.542 227.554L131.585 227.523L131.57 228.502ZM135.484 228.562L137.441 228.592L137.456 227.614L135.499 227.584L135.484 228.562ZM139.398 228.622L141.355 228.652L141.37 227.674L139.413 227.644L139.398 228.622ZM143.312 228.682L145.269 228.712L145.284 227.734L143.327 227.704L143.312 228.682ZM147.226 228.742L149.183 228.773L149.198 227.794L147.241 227.764L147.226 228.742ZM151.14 228.803L153.097 228.833L153.112 227.855L151.155 227.825L151.14 228.803ZM155.054 228.863L157.011 228.893L157.026 227.915L155.069 227.885L155.054 228.863ZM158.968 228.923L160.925 228.953L160.94 227.975L158.983 227.945L158.968 228.923ZM162.882 228.983L164.839 229.013L164.854 228.035L162.897 228.005L162.882 228.983ZM166.796 229.044L168.753 229.074L168.769 228.096L166.812 228.065L166.796 229.044ZM170.71 229.104L172.668 229.134L172.683 228.156L170.726 228.126L170.71 229.104ZM174.625 229.164L176.582 229.194L176.597 228.216L174.64 228.186L174.625 229.164ZM178.539 229.224L180.496 229.254L180.511 228.276L178.554 228.246L178.539 229.224ZM182.453 229.284L184.41 229.315L184.425 228.336L182.468 228.306L182.453 229.284ZM186.367 229.345L188.324 229.375L188.339 228.397L186.382 228.366L186.367 229.345ZM190.281 229.405L192.238 229.435L192.253 228.457L190.296 228.427L190.281 229.405ZM194.195 229.465L196.152 229.495L196.167 228.517L194.21 228.487L194.195 229.465ZM198.109 229.525L200.066 229.555L200.081 228.577L198.124 228.547L198.109 229.525ZM202.023 229.586L203.98 229.616L203.995 228.637L202.038 228.607L202.023 229.586ZM205.937 229.646L207.894 229.676L207.909 228.698L205.952 228.668L205.937 229.646ZM209.851 229.706L211.808 229.736L211.823 228.758L209.866 228.728L209.851 229.706ZM213.765 229.766L215.722 229.796L215.737 228.818L213.78 228.788L213.765 229.766ZM217.679 229.826L219.636 229.856L219.651 228.878L217.694 228.848L217.679 229.826ZM221.593 229.887L223.55 229.917L223.565 228.939L221.608 228.908L221.593 229.887ZM225.507 229.947L227.464 229.977L227.479 228.999L225.522 228.969L225.507 229.947ZM229.421 230.007L231.378 230.037L231.393 229.059L229.436 229.029L229.421 230.007ZM233.335 230.067L235.292 230.097L235.307 229.119L233.35 229.089L233.335 230.067ZM237.249 230.127L239.206 230.158L239.221 229.179L237.264 229.149L237.249 230.127ZM241.163 230.188L243.12 230.218L243.135 229.24L241.178 229.21L241.163 230.188Z" fill="black"/>
<path d="M245.878 293.695L242.346 289.287L240.295 294.55L245.878 293.695ZM89.3244 233.194L90.2336 233.548L90.5889 232.637L89.6797 232.283L89.3244 233.194ZM92.0519 234.257L93.8702 234.966L94.2255 234.055L92.4072 233.346L92.0519 234.257ZM95.6885 235.675L97.5069 236.384L97.8622 235.472L96.0438 234.763L95.6885 235.675ZM99.3252 237.092L101.144 237.801L101.499 236.89L99.6805 236.181L99.3252 237.092ZM102.962 238.51L104.78 239.219L105.135 238.307L103.317 237.599L102.962 238.51ZM106.598 239.928L108.417 240.636L108.772 239.725L106.954 239.016L106.598 239.928ZM110.235 241.345L112.053 242.054L112.409 241.143L110.59 240.434L110.235 241.345ZM113.872 242.763L115.69 243.472L116.045 242.56L114.227 241.851L113.872 242.763ZM117.508 244.18L119.327 244.889L119.682 243.978L117.864 243.269L117.508 244.18ZM121.145 245.598L122.963 246.307L123.319 245.395L121.5 244.687L121.145 245.598ZM124.782 247.016L126.6 247.724L126.955 246.813L125.137 246.104L124.782 247.016ZM128.418 248.433L130.237 249.142L130.592 248.231L128.774 247.522L128.418 248.433ZM132.055 249.851L133.873 250.56L134.229 249.648L132.41 248.939L132.055 249.851ZM135.692 251.268L137.51 251.977L137.865 251.066L136.047 250.357L135.692 251.268ZM139.328 252.686L141.147 253.395L141.502 252.483L139.684 251.775L139.328 252.686ZM142.965 254.104L144.783 254.812L145.138 253.901L143.32 253.192L142.965 254.104ZM146.601 255.521L148.42 256.23L148.775 255.319L146.957 254.61L146.601 255.521ZM150.238 256.939L152.056 257.648L152.412 256.736L150.593 256.027L150.238 256.939ZM153.875 258.356L155.693 259.065L156.048 258.154L154.23 257.445L153.875 258.356ZM157.511 259.774L159.33 260.483L159.685 259.571L157.867 258.863L157.511 259.774ZM161.148 261.192L162.966 261.9L163.322 260.989L161.503 260.28L161.148 261.192ZM164.785 262.609L166.603 263.318L166.958 262.407L165.14 261.698L164.785 262.609ZM168.421 264.027L170.24 264.736L170.595 263.824L168.777 263.115L168.421 264.027ZM172.058 265.444L173.876 266.153L174.232 265.242L172.413 264.533L172.058 265.444ZM175.695 266.862L177.513 267.571L177.868 266.659L176.05 265.951L175.695 266.862ZM179.331 268.28L181.15 268.988L181.505 268.077L179.687 267.368L179.331 268.28ZM182.968 269.697L184.786 270.406L185.141 269.495L183.323 268.786L182.968 269.697ZM186.605 271.115L188.423 271.824L188.778 270.912L186.96 270.203L186.605 271.115ZM190.241 272.532L192.059 273.241L192.415 272.33L190.596 271.621L190.241 272.532ZM193.878 273.95L195.696 274.659L196.051 273.747L194.233 273.039L193.878 273.95ZM197.514 275.368L199.333 276.076L199.688 275.165L197.87 274.456L197.514 275.368ZM201.151 276.785L202.969 277.494L203.325 276.583L201.506 275.874L201.151 276.785ZM204.788 278.203L206.606 278.912L206.961 278L205.143 277.291L204.788 278.203ZM208.424 279.62L210.243 280.329L210.598 279.418L208.78 278.709L208.424 279.62ZM212.061 281.038L213.879 281.747L214.235 280.835L212.416 280.127L212.061 281.038ZM215.698 282.456L217.516 283.164L217.871 282.253L216.053 281.544L215.698 282.456ZM219.334 283.873L221.153 284.582L221.508 283.671L219.69 282.962L219.334 283.873ZM222.971 285.291L224.789 286L225.145 285.088L223.326 284.379L222.971 285.291ZM226.608 286.708L228.426 287.417L228.781 286.506L226.963 285.797L226.608 286.708ZM230.244 288.126L232.062 288.835L232.418 287.923L230.599 287.215L230.244 288.126ZM233.881 289.544L235.699 290.252L236.054 289.341L234.236 288.632L233.881 289.544ZM237.517 290.961L239.336 291.67L239.691 290.759L237.873 290.05L237.517 290.961ZM241.154 292.379L242.972 293.088L243.328 292.176L241.509 291.467L241.154 292.379Z" fill="black"/>
<circle cx="68.1949" cy="221.251" r="44.1891" fill="#F9EFE4"/>
<path d="M85.8706 211.431C85.8706 215.772 77.9558 219.287 68.1949 219.287C58.4341 219.287 50.5193 215.772 50.5193 211.431M85.8706 211.431C85.8706 207.091 77.9558 203.575 68.1949 203.575C58.4341 203.575 50.5193 207.091 50.5193 211.431M85.8706 211.431V221.251M50.5193 211.431V221.251M50.5193 221.251C50.5193 225.591 58.4341 229.107 68.1949 229.107M50.5193 221.251V231.071C50.5193 235.411 58.4341 238.927 68.1949 238.927M79.9787 227.143V233.035M79.9787 233.035V238.927M79.9787 233.035H85.8706M79.9787 233.035H74.0868" stroke="#DCA15D" stroke-width="4.41891" stroke-linecap="round" stroke-linejoin="round"/>
</g>
<defs>
<filter id="filter0_d_67_129" x="12.8891" y="46.7182" width="474.222" height="314.974" filterUnits="userSpaceOnUse" color-interpolation-filters="sRGB">
<feFlood flood-opacity="0" result="BackgroundImageFix"/>
<feColorMatrix in="SourceAlpha" type="matrix" values="0 0 0 0 0 0 0 0 0 0 0 0 0 0 0 0 0 0 127 0" result="hardAlpha"/>
<feOffset dy="3.70558"/>
<feGaussianBlur stdDeviation="5.55837"/>
<feComposite in2="hardAlpha" operator="out"/>
<feColorMatrix type="matrix" values="0 0 0 0 0 0 0 0 0 0 0 0 0 0 0 0 0 0 0.15 0"/>
<feBlend mode="normal" in2="BackgroundImageFix" result="effect1_dropShadow_67_129"/>
<feBlend mode="normal" in="SourceGraphic" in2="effect1_dropShadow_67_129" result="shape"/>
</filter>
<filter id="filter1_d_67_129" x="109.142" y="46.7182" width="377.969" height="314.974" filterUnits="userSpaceOnUse" color-interpolation-filters="sRGB">
<feFlood flood-opacity="0" result="BackgroundImageFix"/>
<feColorMatrix in="SourceAlpha" type="matrix" values="0 0 0 0 0 0 0 0 0 0 0 0 0 0 0 0 0 0 127 0" result="hardAlpha"/>
<feOffset dy="3.70558"/>
<feGaussianBlur stdDeviation="5.55837"/>
<feComposite in2="hardAlpha" operator="out"/>
<feColorMatrix type="matrix" values="0 0 0 0 0 0 0 0 0 0 0 0 0 0 0 0 0 0 0.15 0"/>
<feBlend mode="normal" in2="BackgroundImageFix" result="effect1_dropShadow_67_129"/>
<feBlend mode="normal" in="SourceGraphic" in2="effect1_dropShadow_67_129" result="shape"/>
</filter>
<filter id="filter2_d_67_129" x="251.866" y="131.206" width="199.36" height="76.7057" filterUnits="userSpaceOnUse" color-interpolation-filters="sRGB">
<feFlood flood-opacity="0" result="BackgroundImageFix"/>
<feColorMatrix in="SourceAlpha" type="matrix" values="0 0 0 0 0 0 0 0 0 0 0 0 0 0 0 0 0 0 127 0" result="hardAlpha"/>
<feOffset dy="2.96447"/>
<feGaussianBlur stdDeviation="5.55837"/>
<feComposite in2="hardAlpha" operator="out"/>
<feColorMatrix type="matrix" values="0 0 0 0 0 0 0 0 0 0 0 0 0 0 0 0 0 0 0.15 0"/>
<feBlend mode="normal" in2="BackgroundImageFix" result="effect1_dropShadow_67_129"/>
<feBlend mode="normal" in="SourceGraphic" in2="effect1_dropShadow_67_129" result="shape"/>
</filter>
<filter id="filter3_d_67_129" x="251.866" y="193.459" width="199.36" height="76.7057" filterUnits="userSpaceOnUse" color-interpolation-filters="sRGB">
<feFlood flood-opacity="0" result="BackgroundImageFix"/>
<feColorMatrix in="SourceAlpha" type="matrix" values="0 0 0 0 0 0 0 0 0 0 0 0 0 0 0 0 0 0 127 0" result="hardAlpha"/>
<feOffset dy="2.96447"/>
<feGaussianBlur stdDeviation="5.55837"/>
<feComposite in2="hardAlpha" operator="out"/>
<feColorMatrix type="matrix" values="0 0 0 0 0 0 0 0 0 0 0 0 0 0 0 0 0 0 0.15 0"/>
<feBlend mode="normal" in2="BackgroundImageFix" result="effect1_dropShadow_67_129"/>
<feBlend mode="normal" in="SourceGraphic" in2="effect1_dropShadow_67_129" result="shape"/>
</filter>
<filter id="filter4_d_67_129" x="251.866" y="255.713" width="199.36" height="76.7057" filterUnits="userSpaceOnUse" color-interpolation-filters="sRGB">
<feFlood flood-opacity="0" result="BackgroundImageFix"/>
<feColorMatrix in="SourceAlpha" type="matrix" values="0 0 0 0 0 0 0 0 0 0 0 0 0 0 0 0 0 0 127 0" result="hardAlpha"/>
<feOffset dy="2.96447"/>
<feGaussianBlur stdDeviation="5.55837"/>
<feComposite in2="hardAlpha" operator="out"/>
<feColorMatrix type="matrix" values="0 0 0 0 0 0 0 0 0 0 0 0 0 0 0 0 0 0 0.15 0"/>
<feBlend mode="normal" in2="BackgroundImageFix" result="effect1_dropShadow_67_129"/>
<feBlend mode="normal" in="SourceGraphic" in2="effect1_dropShadow_67_129" result="shape"/>
</filter>
</defs>
</svg>
