<svg width="100%" height="254" viewBox="0 0 484 254" fill="none" xmlns="http://www.w3.org/2000/svg">
<g filter="url(#filter0_d_432_9)">
<rect x="10.2749" y="7" width="308.1" height="186.55" rx="13" fill="white"/>
<path opacity="0.4" d="M35.7575 148.575V142.315H35.5975L34.4475 144.675H33.3375L34.8875 141.575H36.8075V148.575H35.7575ZM40.5932 148.715C38.9732 148.715 37.9032 147.945 37.9032 146.715V146.605C37.9032 145.615 38.6032 145.145 39.1132 145.025V144.865C38.6032 144.715 38.0232 144.265 38.0232 143.385V143.275C38.0232 142.155 39.0632 141.435 40.5932 141.435C42.1132 141.435 43.1632 142.155 43.1632 143.275V143.385C43.1632 144.265 42.5832 144.715 42.0732 144.865V145.025C42.5832 145.145 43.2732 145.615 43.2732 146.605V146.715C43.2732 147.945 42.2032 148.715 40.5932 148.715ZM40.5932 144.505C41.5432 144.505 42.1132 144.135 42.1132 143.475V143.395C42.1132 142.745 41.5332 142.375 40.5932 142.375C39.6432 142.375 39.0632 142.745 39.0632 143.395V143.475C39.0632 144.135 39.6332 144.505 40.5932 144.505ZM40.5932 147.775C41.6132 147.775 42.2232 147.365 42.2232 146.655V146.575C42.2232 145.855 41.6232 145.445 40.5932 145.445C39.5532 145.445 38.9532 145.855 38.9532 146.575V146.655C38.9532 147.365 39.5632 147.775 40.5932 147.775ZM46.9253 148.575V141.575H48.9553L50.4853 147.855H50.6453L52.1753 141.575H54.2053V148.575H53.1553V142.335H52.9953L51.4753 148.575H49.6553L48.1353 142.335H47.9753V148.575H46.9253ZM57.2255 148.715C56.1755 148.715 55.3755 148.155 55.3755 147.155C55.3755 146.155 56.1755 145.635 57.2555 145.635H58.7555V145.315C58.7555 144.745 58.4155 144.365 57.6955 144.365C56.9855 144.365 56.6355 144.735 56.5155 145.265L55.5555 144.955C55.7955 144.175 56.4455 143.505 57.7055 143.505C58.9855 143.505 59.7655 144.185 59.7655 145.385V147.415C59.7655 147.615 59.8655 147.715 60.0455 147.715H60.4655V148.575H59.6955C59.2355 148.575 58.9155 148.315 58.9155 147.905V147.875H58.7555C58.6055 148.195 58.2455 148.715 57.2255 148.715ZM57.3755 147.865C58.1955 147.865 58.7555 147.365 58.7555 146.535V146.435H57.3155C56.7655 146.435 56.4055 146.675 56.4055 147.125C56.4055 147.575 56.7655 147.865 57.3755 147.865ZM61.9101 150.575V149.675H64.6601C64.8501 149.675 64.9401 149.575 64.9401 149.375V147.855H64.7801C64.6001 148.245 64.1701 148.665 63.2301 148.665C62.1001 148.665 61.2901 147.885 61.2901 146.615V143.645H62.3201V146.535C62.3201 147.395 62.7701 147.785 63.5301 147.785C64.3801 147.785 64.9301 147.205 64.9301 146.145V143.645H65.9601V149.585C65.9601 150.195 65.5801 150.575 64.9701 150.575H61.9101Z" fill="black"/>
<path opacity="0.4" d="M36.4075 117.515C34.7775 117.515 33.7375 116.595 33.7375 114.725V113.025C33.7375 111.195 34.7775 110.235 36.4075 110.235C38.0375 110.235 39.0875 111.195 39.0875 113.025V114.725C39.0875 116.595 38.0375 117.515 36.4075 117.515ZM36.4075 116.575C37.5075 116.575 38.0375 115.915 38.0375 114.765V112.965C38.0375 111.815 37.4375 111.175 36.4075 111.175C35.3675 111.175 34.7875 111.835 34.7875 112.965V114.765C34.7875 115.935 35.3275 116.575 36.4075 116.575ZM40.8573 117.375V117.125C40.8573 116.625 40.9173 116.355 41.1673 115.895L43.6773 111.445V111.315H39.7373V110.375H44.7573V111.615L42.1273 116.335C41.9673 116.625 41.9073 116.815 41.9073 117.165V117.375H40.8573ZM50.232 117.515C48.822 117.515 47.942 116.705 47.942 115.275V114.675H49.022V115.275C49.022 116.025 49.432 116.505 50.212 116.505C50.962 116.505 51.312 116.035 51.312 115.275V111.355H50.092V110.375H53.172V111.355H52.392V115.275C52.392 116.725 51.602 117.515 50.232 117.515ZM55.5849 117.515C54.5349 117.515 53.7349 116.955 53.7349 115.955C53.7349 114.955 54.5349 114.435 55.6149 114.435H57.1149V114.115C57.1149 113.545 56.7749 113.165 56.0549 113.165C55.3449 113.165 54.9949 113.535 54.8749 114.065L53.9149 113.755C54.1549 112.975 54.8049 112.305 56.0649 112.305C57.3449 112.305 58.1249 112.985 58.1249 114.185V116.215C58.1249 116.415 58.2249 116.515 58.4049 116.515H58.8249V117.375H58.0549C57.5949 117.375 57.2749 117.115 57.2749 116.705V116.675H57.1149C56.9649 116.995 56.6049 117.515 55.5849 117.515ZM55.7349 116.665C56.5549 116.665 57.1149 116.165 57.1149 115.335V115.235H55.6749C55.1249 115.235 54.7649 115.475 54.7649 115.925C54.7649 116.375 55.1249 116.665 55.7349 116.665ZM59.8264 117.375V112.445H60.8364V113.185H60.9964C61.1864 112.785 61.6164 112.365 62.5664 112.365C63.6864 112.365 64.4964 113.145 64.4964 114.415V117.375H63.4664V114.495C63.4664 113.635 63.0164 113.245 62.2664 113.245C61.4164 113.245 60.8564 113.825 60.8564 114.885V117.375H59.8264Z" fill="black"/>
<path opacity="0.4" d="M33.6675 86.175V85.385C33.6675 83.915 34.4375 83.335 35.7575 82.925L36.3675 82.735C37.1875 82.475 37.6875 82.055 37.6875 81.265V81.225C37.6875 80.465 37.1075 79.975 36.2375 79.975C35.3375 79.975 34.7375 80.455 34.7375 81.395V81.555H33.6975V81.405C33.6975 79.895 34.7975 79.035 36.2375 79.035C37.6775 79.035 38.7375 79.895 38.7375 81.205V81.305C38.7375 82.655 37.8575 83.275 36.6275 83.665L36.0375 83.845C35.0975 84.135 34.7275 84.425 34.7275 85.135V85.235H38.6775V86.175H33.6675ZM42.2241 86.315C40.6041 86.315 39.5341 85.545 39.5341 84.315V84.205C39.5341 83.215 40.2341 82.745 40.7441 82.625V82.465C40.2341 82.315 39.6541 81.865 39.6541 80.985V80.875C39.6541 79.755 40.6941 79.035 42.2241 79.035C43.7441 79.035 44.7941 79.755 44.7941 80.875V80.985C44.7941 81.865 44.2141 82.315 43.7041 82.465V82.625C44.2141 82.745 44.9041 83.215 44.9041 84.205V84.315C44.9041 85.545 43.8341 86.315 42.2241 86.315ZM42.2241 82.105C43.1741 82.105 43.7441 81.735 43.7441 81.075V80.995C43.7441 80.345 43.1641 79.975 42.2241 79.975C41.2741 79.975 40.6941 80.345 40.6941 80.995V81.075C40.6941 81.735 41.2641 82.105 42.2241 82.105ZM42.2241 85.375C43.2441 85.375 43.8541 84.965 43.8541 84.255V84.175C43.8541 83.455 43.2541 83.045 42.2241 83.045C41.1841 83.045 40.5841 83.455 40.5841 84.175V84.255C40.5841 84.965 41.1941 85.375 42.2241 85.375ZM50.4762 86.315C49.0662 86.315 48.1862 85.505 48.1862 84.075V83.475H49.2662V84.075C49.2662 84.825 49.6762 85.305 50.4562 85.305C51.2062 85.305 51.5562 84.835 51.5562 84.075V80.155H50.3362V79.175H53.4162V80.155H52.6362V84.075C52.6362 85.525 51.8462 86.315 50.4762 86.315ZM56.1891 86.265C55.0591 86.265 54.2491 85.475 54.2491 84.205V81.245H55.2791V84.135C55.2791 84.985 55.7291 85.385 56.4891 85.385C57.3391 85.385 57.8891 84.805 57.8891 83.735V81.245H58.9191V86.175H57.9091V85.435H57.7491C57.5591 85.845 57.1291 86.265 56.1891 86.265ZM60.4416 86.175V79.175H61.4716V86.175H60.4416Z" fill="black"/>
<rect x="84.8623" y="80.125" width="210.6" height="9" rx="4.5" fill="#F9EFE4"/>
<rect x="84.8623" y="80.125" width="194.35" height="9" rx="4.5" fill="#DCA15D"/>
<rect x="84.8623" y="111.325" width="210.6" height="9" rx="4.5" fill="#F9EFE4"/>
<rect x="84.8623" y="111.325" width="91.65" height="9" rx="4.5" fill="#DCA15D"/>
<rect x="84.8623" y="142.525" width="210.6" height="9" rx="4.5" fill="#F9EFE4"/>
<rect x="84.8623" y="142.525" width="194.35" height="9" rx="4.5" fill="#DCA15D"/>
<path d="M34.5015 52.125V39.525H39.7935C42.1335 39.525 43.7355 40.821 43.7355 42.891V43.089C43.7355 44.673 42.8715 45.591 41.7915 45.987V46.275C42.7095 46.329 43.3035 46.905 43.3035 47.949V52.125H41.3595V48.219C41.3595 47.571 41.0355 47.157 40.2795 47.157H36.4455V52.125H34.5015ZM36.4455 45.393H39.5775C40.9635 45.393 41.7735 44.655 41.7735 43.413V43.269C41.7735 42.045 40.9995 41.289 39.5775 41.289H36.4455V45.393ZM49.9965 52.377C47.2965 52.377 45.4965 50.559 45.4965 47.805V47.589C45.4965 44.817 47.3145 42.999 49.9245 42.999C52.4805 42.999 54.2085 44.799 54.2085 47.499V48.201H47.3865C47.4405 49.767 48.5385 50.757 50.0325 50.757C51.4365 50.757 52.0485 50.037 52.4265 49.209L53.9745 50.001C53.4345 51.027 52.3905 52.377 49.9965 52.377ZM47.4045 46.779H52.3365C52.2285 45.447 51.2925 44.637 49.9065 44.637C48.5025 44.637 47.5845 45.447 47.4045 46.779ZM56.4403 55.725V43.251H58.2583V44.529H58.5463C58.9963 43.737 59.8423 42.999 61.5703 42.999C63.7843 42.999 65.6743 44.691 65.6743 47.553V47.823C65.6743 50.685 63.8023 52.377 61.5703 52.377C59.8423 52.377 58.9963 51.639 58.5823 50.919H58.2943V55.725H56.4403ZM61.0303 50.757C62.6503 50.757 63.8023 49.677 63.8023 47.769V47.607C63.8023 45.699 62.6323 44.637 61.0303 44.637C59.4463 44.637 58.2763 45.699 58.2763 47.607V47.769C58.2763 49.677 59.4283 50.757 61.0303 50.757ZM72.1295 52.377C69.4655 52.377 67.5395 50.649 67.5395 47.823V47.553C67.5395 44.745 69.4655 42.999 72.1295 42.999C74.7935 42.999 76.7375 44.745 76.7375 47.553V47.823C76.7375 50.649 74.7935 52.377 72.1295 52.377ZM72.1295 50.721C73.7495 50.721 74.8835 49.623 74.8835 47.769V47.607C74.8835 45.771 73.7675 44.655 72.1295 44.655C70.5095 44.655 69.3935 45.771 69.3935 47.607V47.769C69.3935 49.623 70.5095 50.721 72.1295 50.721ZM79.0457 52.125V43.251H80.8637V44.295H81.1517C81.4397 43.557 82.0697 43.215 83.0237 43.215H84.0857V44.889H82.9517C81.7457 44.889 80.8997 45.537 80.8997 46.905V52.125H79.0457ZM89.3367 52.125C88.2387 52.125 87.5727 51.441 87.5727 50.343V44.817H85.1247V43.251H87.5727V40.317H89.4267V43.251H92.0727V44.817H89.4267V50.019C89.4267 50.379 89.5887 50.559 89.9307 50.559H91.7847V52.125H89.3367ZM95.1868 42.045C94.4488 42.045 93.9088 41.541 93.9088 40.785C93.9088 40.029 94.4488 39.525 95.1868 39.525C95.9068 39.525 96.4648 40.029 96.4648 40.785C96.4648 41.541 95.9068 42.045 95.1868 42.045ZM94.2508 52.125V43.251H96.1048V52.125H94.2508ZM98.8563 52.125V43.251H100.674V44.583H100.962C101.304 43.863 102.078 43.107 103.788 43.107C105.804 43.107 107.262 44.511 107.262 46.797V52.125H105.408V46.941C105.408 45.393 104.598 44.691 103.248 44.691C101.718 44.691 100.71 45.735 100.71 47.643V52.125H98.8563ZM109.499 47.733V47.463C109.499 44.673 111.371 42.999 113.621 42.999C115.349 42.999 116.195 43.791 116.627 44.529H116.915V43.251H118.715V53.943C118.715 55.041 118.031 55.725 116.933 55.725H110.957V54.105H116.357C116.699 54.105 116.879 53.925 116.879 53.565V50.739H116.591C116.195 51.423 115.367 52.179 113.621 52.179C111.371 52.179 109.499 50.505 109.499 47.733ZM114.125 50.559C115.727 50.559 116.897 49.497 116.897 47.679V47.517C116.897 45.699 115.745 44.637 114.125 44.637C112.523 44.637 111.371 45.699 111.371 47.517V47.679C111.371 49.497 112.541 50.559 114.125 50.559Z" fill="black"/>
</g>
<g filter="url(#filter1_d_432_9)">
<rect x="261.825" y="108.4" width="211.9" height="132.6" rx="6.5" fill="white"/>
<rect x="283.324" y="144.317" width="25.6658" height="25.6658" rx="12.8329" fill="#F9EFE4"/>
<g clip-path="url(#clip0_432_9)">
<path d="M303.556 157.063V157.168L305.768 154.956C306.463 154.261 306.463 153.137 305.768 152.442L303.289 149.967C302.594 149.271 301.471 149.271 300.775 149.967L299.503 151.239C299.417 151.23 299.328 151.223 299.239 151.223H295.685C294.507 151.223 293.539 152.112 293.412 153.255H293.399V157.063C293.399 157.765 293.968 158.333 294.669 158.333C295.37 158.333 295.939 157.765 295.939 157.063V154.27H301.017C302.419 154.27 303.556 155.406 303.556 156.809V157.063ZM296.954 155.286V157.063C296.954 158.326 295.932 159.348 294.669 159.348C293.406 159.348 292.384 158.326 292.384 157.063V153.299C291.244 153.496 290.295 154.324 289.972 155.464L289.448 157.292L287.125 159.615C286.43 160.31 286.43 161.434 287.125 162.129L289.604 164.607C290.299 165.302 291.422 165.302 292.117 164.607L293.314 163.411C293.342 163.411 293.371 163.414 293.399 163.414H298.478C299.319 163.414 300.001 162.732 300.001 161.891C300.001 161.713 299.969 161.541 299.915 161.383H300.001C300.842 161.383 301.524 160.7 301.524 159.859C301.524 159.453 301.366 159.085 301.106 158.812C301.921 158.653 302.537 157.936 302.54 157.073V157.06C302.537 156.082 301.743 155.289 300.763 155.289H296.954V155.286Z" fill="#DCA15D"/>
</g>
<rect x="315.49" y="146.2" width="117.294" height="9" rx="4.5" fill="#DCA15D"/>
<rect x="315.49" y="159.1" width="117.294" height="9" rx="4.5" fill="#F9EFE4"/>
<rect x="283.324" y="185.583" width="168.902" height="9" rx="4.5" fill="#F9EFE4"/>
<rect x="283.324" y="198.483" width="168.902" height="9" rx="4.5" fill="#F9EFE4"/>
<rect x="283.324" y="211.383" width="168.902" height="9" rx="4.5" fill="#F9EFE4"/>
</g>
<defs>
<filter id="filter0_d_432_9" x="0.524903" y="0.500001" width="327.6" height="206.05" filterUnits="userSpaceOnUse" color-interpolation-filters="sRGB">
<feFlood flood-opacity="0" result="BackgroundImageFix"/>
<feColorMatrix in="SourceAlpha" type="matrix" values="0 0 0 0 0 0 0 0 0 0 0 0 0 0 0 0 0 0 127 0" result="hardAlpha"/>
<feOffset dy="3.25"/>
<feGaussianBlur stdDeviation="4.875"/>
<feComposite in2="hardAlpha" operator="out"/>
<feColorMatrix type="matrix" values="0 0 0 0 0 0 0 0 0 0 0 0 0 0 0 0 0 0 0.15 0"/>
<feBlend mode="normal" in2="BackgroundImageFix" result="effect1_dropShadow_432_9"/>
<feBlend mode="normal" in="SourceGraphic" in2="effect1_dropShadow_432_9" result="shape"/>
</filter>
<filter id="filter1_d_432_9" x="252.075" y="101.9" width="231.4" height="152.1" filterUnits="userSpaceOnUse" color-interpolation-filters="sRGB">
<feFlood flood-opacity="0" result="BackgroundImageFix"/>
<feColorMatrix in="SourceAlpha" type="matrix" values="0 0 0 0 0 0 0 0 0 0 0 0 0 0 0 0 0 0 127 0" result="hardAlpha"/>
<feOffset dy="3.25"/>
<feGaussianBlur stdDeviation="4.875"/>
<feComposite in2="hardAlpha" operator="out"/>
<feColorMatrix type="matrix" values="0 0 0 0 0 0 0 0 0 0 0 0 0 0 0 0 0 0 0.15 0"/>
<feBlend mode="normal" in2="BackgroundImageFix" result="effect1_dropShadow_432_9"/>
<feBlend mode="normal" in="SourceGraphic" in2="effect1_dropShadow_432_9" result="shape"/>
</filter>
<clipPath id="clip0_432_9">
<rect width="20.3125" height="16.25" fill="white" transform="translate(286.29 149.192)"/>
</clipPath>
</defs>
</svg>
